<mxfile modified="2020-10-27T16:15:07.708Z" host="app.diagrams.net" agent="5.0 (Windows NT 10.0; Win64; x64) AppleWebKit/537.36 (KHTML, like Gecko) Chrome/86.0.4240.111 Safari/537.36" etag="NcbSpV4nNsebrrfRrUiW" version="13.8.2" type="github" pages="11">
  <diagram id="Ht1M8jgEwFfnCIfOTk4-" name="Page-1">
    <mxGraphModel dx="1209" dy="675" grid="1" gridSize="10" guides="1" tooltips="1" connect="1" arrows="1" fold="1" page="1" pageScale="1" pageWidth="1169" pageHeight="827" math="0" shadow="0">
      <root>
        <mxCell id="0" />
        <mxCell id="1" parent="0" />
        <mxCell id="-QjtrjUzRDEMRZ5MF8oH-14" value="Amazon SageMaker" style="whiteSpace=wrap;html=1;fillColor=none;fontSize=14;fontColor=#000000;dashed=0;fontStyle=0;align=center;verticalAlign=top;strokeColor=#D86613;gradientColor=none;spacingLeft=0;labelPosition=center;verticalLabelPosition=bottom;" parent="1" vertex="1">
          <mxGeometry x="872.5" y="174.5" width="232" height="160" as="geometry" />
        </mxCell>
        <mxCell id="SCVMTBWpLvtzJIhz15lM-34" value="" style="whiteSpace=wrap;html=1;fillColor=none;fontSize=14;fontColor=#000000;dashed=0;fontStyle=0;align=center;verticalAlign=top;strokeColor=#CCCCCC;gradientColor=none;spacingLeft=0;labelPosition=center;verticalLabelPosition=bottom;" parent="1" vertex="1">
          <mxGeometry x="882.5" y="257.5" width="210" height="70" as="geometry" />
        </mxCell>
        <mxCell id="-QjtrjUzRDEMRZ5MF8oH-1" value="" style="outlineConnect=0;fontColor=#232F3E;gradientColor=none;fillColor=#277116;strokeColor=none;dashed=0;verticalLabelPosition=bottom;verticalAlign=top;align=center;html=1;fontSize=12;fontStyle=0;aspect=fixed;pointerEvents=1;shape=mxgraph.aws4.door_lock;" parent="1" vertex="1">
          <mxGeometry x="64.5" y="260.5" width="78" height="78" as="geometry" />
        </mxCell>
        <mxCell id="-QjtrjUzRDEMRZ5MF8oH-2" value="" style="outlineConnect=0;fontColor=#232F3E;gradientColor=none;fillColor=#277116;strokeColor=none;dashed=0;verticalLabelPosition=bottom;verticalAlign=top;align=center;html=1;fontSize=12;fontStyle=0;aspect=fixed;pointerEvents=1;shape=mxgraph.aws4.car;" parent="1" vertex="1">
          <mxGeometry x="64.5" y="356" width="78" height="78" as="geometry" />
        </mxCell>
        <mxCell id="-QjtrjUzRDEMRZ5MF8oH-3" value="" style="outlineConnect=0;fontColor=#232F3E;gradientColor=none;fillColor=#277116;strokeColor=none;dashed=0;verticalLabelPosition=bottom;verticalAlign=top;align=center;html=1;fontSize=12;fontStyle=0;aspect=fixed;pointerEvents=1;shape=mxgraph.aws4.camera;" parent="1" vertex="1">
          <mxGeometry x="64.5" y="451.5" width="78" height="78" as="geometry" />
        </mxCell>
        <mxCell id="-QjtrjUzRDEMRZ5MF8oH-4" value="" style="outlineConnect=0;fontColor=#232F3E;gradientColor=none;fillColor=#277116;strokeColor=none;dashed=0;verticalLabelPosition=bottom;verticalAlign=top;align=center;html=1;fontSize=12;fontStyle=0;aspect=fixed;pointerEvents=1;shape=mxgraph.aws4.utility;" parent="1" vertex="1">
          <mxGeometry x="165.5" y="306.5" width="78" height="78" as="geometry" />
        </mxCell>
        <mxCell id="-QjtrjUzRDEMRZ5MF8oH-5" value="" style="outlineConnect=0;fontColor=#232F3E;gradientColor=none;fillColor=#277116;strokeColor=none;dashed=0;verticalLabelPosition=bottom;verticalAlign=top;align=center;html=1;fontSize=12;fontStyle=0;aspect=fixed;pointerEvents=1;shape=mxgraph.aws4.coffee_pot;" parent="1" vertex="1">
          <mxGeometry x="166.5" y="410.5" width="78" height="78" as="geometry" />
        </mxCell>
        <mxCell id="-QjtrjUzRDEMRZ5MF8oH-6" value="" style="outlineConnect=0;fontColor=#232F3E;gradientColor=none;fillColor=#277116;strokeColor=none;dashed=0;verticalLabelPosition=bottom;verticalAlign=top;align=center;html=1;fontSize=12;fontStyle=0;aspect=fixed;pointerEvents=1;shape=mxgraph.aws4.lightbulb;" parent="1" vertex="1">
          <mxGeometry x="263.5" y="260.5" width="78" height="78" as="geometry" />
        </mxCell>
        <mxCell id="-QjtrjUzRDEMRZ5MF8oH-7" value="" style="outlineConnect=0;fontColor=#232F3E;gradientColor=none;fillColor=#277116;strokeColor=none;dashed=0;verticalLabelPosition=bottom;verticalAlign=top;align=center;html=1;fontSize=12;fontStyle=0;aspect=fixed;pointerEvents=1;shape=mxgraph.aws4.house;" parent="1" vertex="1">
          <mxGeometry x="261.5" y="356" width="78" height="78" as="geometry" />
        </mxCell>
        <mxCell id="-QjtrjUzRDEMRZ5MF8oH-8" value="" style="outlineConnect=0;fontColor=#232F3E;gradientColor=none;fillColor=#277116;strokeColor=none;dashed=0;verticalLabelPosition=bottom;verticalAlign=top;align=center;html=1;fontSize=12;fontStyle=0;aspect=fixed;pointerEvents=1;shape=mxgraph.aws4.thermostat;" parent="1" vertex="1">
          <mxGeometry x="261.5" y="451.5" width="78" height="78" as="geometry" />
        </mxCell>
        <mxCell id="-QjtrjUzRDEMRZ5MF8oH-9" value="1" style="rounded=1;whiteSpace=wrap;html=1;fillColor=#007CBD;strokeColor=none;fontColor=#FFFFFF;fontStyle=1;fontSize=22;" parent="1" vertex="1">
          <mxGeometry x="223.5" y="211.5" width="40" height="38" as="geometry" />
        </mxCell>
        <mxCell id="-QjtrjUzRDEMRZ5MF8oH-10" value="ML Model Executable" style="outlineConnect=0;fontColor=#232F3E;gradientColor=none;fillColor=#116D5B;strokeColor=none;dashed=0;verticalLabelPosition=bottom;verticalAlign=top;align=center;html=1;fontSize=12;fontStyle=0;aspect=fixed;pointerEvents=1;shape=mxgraph.aws4.sagemaker_model;" parent="1" vertex="1">
          <mxGeometry x="473.5" y="244.5" width="78" height="78" as="geometry" />
        </mxCell>
        <mxCell id="-QjtrjUzRDEMRZ5MF8oH-11" value="AWS Lambda Function" style="outlineConnect=0;fontColor=#232F3E;gradientColor=none;fillColor=#277116;strokeColor=none;dashed=0;verticalLabelPosition=bottom;verticalAlign=top;align=center;html=1;fontSize=12;fontStyle=0;aspect=fixed;pointerEvents=1;shape=mxgraph.aws4.lambda_function;" parent="1" vertex="1">
          <mxGeometry x="473.5" y="349.5" width="78" height="78" as="geometry" />
        </mxCell>
        <mxCell id="-QjtrjUzRDEMRZ5MF8oH-12" value="AWS IoT Greengrass Core" style="outlineConnect=0;fontColor=#232F3E;gradientColor=#60A337;gradientDirection=north;fillColor=#277116;strokeColor=#ffffff;dashed=0;verticalLabelPosition=bottom;verticalAlign=top;align=center;html=1;fontSize=12;fontStyle=0;aspect=fixed;shape=mxgraph.aws4.resourceIcon;resIcon=mxgraph.aws4.greengrass;" parent="1" vertex="1">
          <mxGeometry x="473.5" y="457.5" width="78" height="78" as="geometry" />
        </mxCell>
        <mxCell id="-QjtrjUzRDEMRZ5MF8oH-16" value="AWS IoT Core" style="outlineConnect=0;fontColor=#232F3E;gradientColor=#60A337;gradientDirection=north;fillColor=#277116;strokeColor=#ffffff;dashed=0;verticalLabelPosition=bottom;verticalAlign=top;align=center;html=1;fontSize=12;fontStyle=0;aspect=fixed;shape=mxgraph.aws4.resourceIcon;resIcon=mxgraph.aws4.internet_of_things;" parent="1" vertex="1">
          <mxGeometry x="745.5" y="451.5" width="78" height="78" as="geometry" />
        </mxCell>
        <mxCell id="-QjtrjUzRDEMRZ5MF8oH-17" value="AWS IoT Analytics" style="outlineConnect=0;fontColor=#232F3E;gradientColor=#60A337;gradientDirection=north;fillColor=#277116;strokeColor=#ffffff;dashed=0;verticalLabelPosition=bottom;verticalAlign=top;align=center;html=1;fontSize=12;fontStyle=0;aspect=fixed;shape=mxgraph.aws4.resourceIcon;resIcon=mxgraph.aws4.iot_analytics;" parent="1" vertex="1">
          <mxGeometry x="949.5" y="451.5" width="78" height="78" as="geometry" />
        </mxCell>
        <mxCell id="-QjtrjUzRDEMRZ5MF8oH-18" value="ML Model Executable" style="outlineConnect=0;fontColor=#232F3E;gradientColor=none;fillColor=#116D5B;strokeColor=none;dashed=0;verticalLabelPosition=bottom;verticalAlign=top;align=center;html=1;fontSize=12;fontStyle=0;aspect=fixed;pointerEvents=1;shape=mxgraph.aws4.sagemaker_model;" parent="1" vertex="1">
          <mxGeometry x="136.5" y="691.5" width="78" height="78" as="geometry" />
        </mxCell>
        <mxCell id="-QjtrjUzRDEMRZ5MF8oH-19" value="AWS IoT Greengrass Core" style="outlineConnect=0;fontColor=#232F3E;gradientColor=#60A337;gradientDirection=north;fillColor=#277116;strokeColor=#ffffff;dashed=0;verticalLabelPosition=bottom;verticalAlign=top;align=center;html=1;fontSize=12;fontStyle=0;aspect=fixed;shape=mxgraph.aws4.resourceIcon;resIcon=mxgraph.aws4.iot_core;" parent="1" vertex="1">
          <mxGeometry x="137.5" y="796" width="78" height="78" as="geometry" />
        </mxCell>
        <mxCell id="-QjtrjUzRDEMRZ5MF8oH-20" value="Video Camera" style="outlineConnect=0;fontColor=#232F3E;gradientColor=none;fillColor=#277116;strokeColor=none;dashed=0;verticalLabelPosition=bottom;verticalAlign=top;align=center;html=1;fontSize=12;fontStyle=0;aspect=fixed;pointerEvents=1;shape=mxgraph.aws4.camera;" parent="1" vertex="1">
          <mxGeometry x="137.5" y="903.5" width="78" height="78" as="geometry" />
        </mxCell>
        <mxCell id="-QjtrjUzRDEMRZ5MF8oH-21" value="AWS IoT Core" style="outlineConnect=0;fontColor=#232F3E;gradientColor=#60A337;gradientDirection=north;fillColor=#277116;strokeColor=#ffffff;dashed=0;verticalLabelPosition=bottom;verticalAlign=top;align=center;html=1;fontSize=12;fontStyle=0;aspect=fixed;shape=mxgraph.aws4.resourceIcon;resIcon=mxgraph.aws4.internet_of_things;" parent="1" vertex="1">
          <mxGeometry x="352.5" y="711.5" width="78" height="78" as="geometry" />
        </mxCell>
        <mxCell id="-QjtrjUzRDEMRZ5MF8oH-22" value="AWS IoT Analytics" style="outlineConnect=0;fontColor=#232F3E;gradientColor=#60A337;gradientDirection=north;fillColor=#277116;strokeColor=#ffffff;dashed=0;verticalLabelPosition=bottom;verticalAlign=top;align=center;html=1;fontSize=12;fontStyle=0;aspect=fixed;shape=mxgraph.aws4.resourceIcon;resIcon=mxgraph.aws4.iot_analytics;" parent="1" vertex="1">
          <mxGeometry x="532.5" y="708.5" width="78" height="78" as="geometry" />
        </mxCell>
        <mxCell id="-QjtrjUzRDEMRZ5MF8oH-23" value="AWS IoT Events" style="outlineConnect=0;fontColor=#232F3E;gradientColor=#60A337;gradientDirection=north;fillColor=#277116;strokeColor=#ffffff;dashed=0;verticalLabelPosition=bottom;verticalAlign=top;align=center;html=1;fontSize=12;fontStyle=0;aspect=fixed;shape=mxgraph.aws4.resourceIcon;resIcon=mxgraph.aws4.iot_events;" parent="1" vertex="1">
          <mxGeometry x="721.5" y="708.5" width="78" height="78" as="geometry" />
        </mxCell>
        <mxCell id="-QjtrjUzRDEMRZ5MF8oH-24" value="Amazon SNS" style="outlineConnect=0;fontColor=#232F3E;gradientColor=#F34482;gradientDirection=north;fillColor=#BC1356;strokeColor=#ffffff;dashed=0;verticalLabelPosition=bottom;verticalAlign=top;align=center;html=1;fontSize=12;fontStyle=0;aspect=fixed;shape=mxgraph.aws4.resourceIcon;resIcon=mxgraph.aws4.sns;" parent="1" vertex="1">
          <mxGeometry x="902.5" y="708.5" width="78" height="78" as="geometry" />
        </mxCell>
        <mxCell id="-QjtrjUzRDEMRZ5MF8oH-25" value="Amazon Kinesis&lt;br&gt;Video Streams&lt;br&gt;" style="outlineConnect=0;fontColor=#232F3E;gradientColor=#945DF2;gradientDirection=north;fillColor=#5A30B5;strokeColor=#ffffff;dashed=0;verticalLabelPosition=bottom;verticalAlign=top;align=center;html=1;fontSize=12;fontStyle=0;aspect=fixed;shape=mxgraph.aws4.resourceIcon;resIcon=mxgraph.aws4.kinesis_video_streams;" parent="1" vertex="1">
          <mxGeometry x="484.5" y="874.5" width="78" height="78" as="geometry" />
        </mxCell>
        <mxCell id="-QjtrjUzRDEMRZ5MF8oH-26" value="Mobile Application" style="outlineConnect=0;fontColor=#232F3E;gradientColor=#F54749;gradientDirection=north;fillColor=#C7131F;strokeColor=#ffffff;dashed=0;verticalLabelPosition=bottom;verticalAlign=top;align=center;html=1;fontSize=12;fontStyle=0;aspect=fixed;shape=mxgraph.aws4.resourceIcon;resIcon=mxgraph.aws4.mobile;" parent="1" vertex="1">
          <mxGeometry x="785.5" y="873.5" width="78" height="78" as="geometry" />
        </mxCell>
        <mxCell id="-QjtrjUzRDEMRZ5MF8oH-27" value="2" style="rounded=1;whiteSpace=wrap;html=1;fillColor=#007CBD;strokeColor=none;fontColor=#FFFFFF;fontStyle=1;fontSize=22;" parent="1" vertex="1">
          <mxGeometry x="483.5" y="164.5" width="40" height="38" as="geometry" />
        </mxCell>
        <mxCell id="-QjtrjUzRDEMRZ5MF8oH-28" value="3" style="rounded=1;whiteSpace=wrap;html=1;fillColor=#007CBD;strokeColor=none;fontColor=#FFFFFF;fontStyle=1;fontSize=22;" parent="1" vertex="1">
          <mxGeometry x="823.5" y="175.5" width="40" height="38" as="geometry" />
        </mxCell>
        <mxCell id="-QjtrjUzRDEMRZ5MF8oH-29" value="4" style="rounded=1;whiteSpace=wrap;html=1;fillColor=#007CBD;strokeColor=none;fontColor=#FFFFFF;fontStyle=1;fontSize=22;" parent="1" vertex="1">
          <mxGeometry x="633.5" y="399.5" width="40" height="38" as="geometry" />
        </mxCell>
        <mxCell id="-QjtrjUzRDEMRZ5MF8oH-30" value="5" style="rounded=1;whiteSpace=wrap;html=1;fillColor=#007CBD;strokeColor=none;fontColor=#FFFFFF;fontStyle=1;fontSize=22;" parent="1" vertex="1">
          <mxGeometry x="878.5" y="399.5" width="40" height="38" as="geometry" />
        </mxCell>
        <mxCell id="-QjtrjUzRDEMRZ5MF8oH-31" value="6" style="rounded=1;whiteSpace=wrap;html=1;fillColor=#007CBD;strokeColor=none;fontColor=#FFFFFF;fontStyle=1;fontSize=22;" parent="1" vertex="1">
          <mxGeometry x="136.5" y="608.5" width="40" height="38" as="geometry" />
        </mxCell>
        <mxCell id="-QjtrjUzRDEMRZ5MF8oH-32" value="7" style="rounded=1;whiteSpace=wrap;html=1;fillColor=#007CBD;strokeColor=none;fontColor=#FFFFFF;fontStyle=1;fontSize=22;" parent="1" vertex="1">
          <mxGeometry x="462.5" y="666.5" width="40" height="38" as="geometry" />
        </mxCell>
        <mxCell id="-QjtrjUzRDEMRZ5MF8oH-33" value="8" style="rounded=1;whiteSpace=wrap;html=1;fillColor=#007CBD;strokeColor=none;fontColor=#FFFFFF;fontStyle=1;fontSize=22;" parent="1" vertex="1">
          <mxGeometry x="832.5" y="666.5" width="40" height="38" as="geometry" />
        </mxCell>
        <mxCell id="-QjtrjUzRDEMRZ5MF8oH-34" value="9" style="rounded=1;whiteSpace=wrap;html=1;fillColor=#007CBD;strokeColor=none;fontColor=#FFFFFF;fontStyle=1;fontSize=22;" parent="1" vertex="1">
          <mxGeometry x="352.5" y="854.5" width="40" height="38" as="geometry" />
        </mxCell>
        <mxCell id="-QjtrjUzRDEMRZ5MF8oH-35" value="10" style="rounded=1;whiteSpace=wrap;html=1;fillColor=#007CBD;strokeColor=none;fontColor=#FFFFFF;fontStyle=1;fontSize=22;" parent="1" vertex="1">
          <mxGeometry x="652.5" y="854.5" width="40" height="38" as="geometry" />
        </mxCell>
        <mxCell id="-QjtrjUzRDEMRZ5MF8oH-47" value="Title text" style="text;html=1;resizable=0;points=[];autosize=1;align=left;verticalAlign=top;spacingTop=-4;fontSize=30;fontStyle=1" parent="1" vertex="1">
          <mxGeometry x="56.5" y="64.5" width="130" height="40" as="geometry" />
        </mxCell>
        <mxCell id="-QjtrjUzRDEMRZ5MF8oH-48" value="Subtitle text&lt;br style=&quot;font-size: 16px&quot;&gt;" style="text;html=1;resizable=0;points=[];autosize=1;align=left;verticalAlign=top;spacingTop=-4;fontSize=16;" parent="1" vertex="1">
          <mxGeometry x="56.5" y="114.5" width="100" height="20" as="geometry" />
        </mxCell>
        <mxCell id="-QjtrjUzRDEMRZ5MF8oH-49" value="Label" style="text;html=1;resizable=0;points=[];autosize=1;align=left;verticalAlign=top;spacingTop=-4;fontSize=16;fontStyle=1" parent="1" vertex="1">
          <mxGeometry x="84.5" y="164.5" width="50" height="20" as="geometry" />
        </mxCell>
        <mxCell id="SCVMTBWpLvtzJIhz15lM-1" value="" style="line;strokeWidth=2;html=1;fontSize=14;" parent="1" vertex="1">
          <mxGeometry x="52.5" y="139.5" width="1060" height="10" as="geometry" />
        </mxCell>
        <mxCell id="SCVMTBWpLvtzJIhz15lM-2" value="&lt;span&gt;Label&lt;/span&gt;" style="text;html=1;resizable=0;points=[];autosize=1;align=left;verticalAlign=top;spacingTop=-4;fontSize=14;fontStyle=1" parent="1" vertex="1">
          <mxGeometry x="442.5" y="216.5" width="50" height="20" as="geometry" />
        </mxCell>
        <mxCell id="SCVMTBWpLvtzJIhz15lM-3" value="" style="edgeStyle=orthogonalEdgeStyle;html=1;endArrow=open;elbow=vertical;startArrow=none;endFill=0;strokeColor=#545B64;rounded=0;fontSize=14;" parent="1" edge="1">
          <mxGeometry width="100" relative="1" as="geometry">
            <mxPoint x="354.5" y="394.5" as="sourcePoint" />
            <mxPoint x="404.5" y="394.5" as="targetPoint" />
          </mxGeometry>
        </mxCell>
        <mxCell id="SCVMTBWpLvtzJIhz15lM-5" value="" style="shape=curlyBracket;whiteSpace=wrap;html=1;rounded=1;fontSize=14;" parent="1" vertex="1">
          <mxGeometry x="415.5" y="248.5" width="20" height="290" as="geometry" />
        </mxCell>
        <mxCell id="SCVMTBWpLvtzJIhz15lM-17" value="&lt;span&gt;Label&lt;/span&gt;" style="edgeStyle=orthogonalEdgeStyle;html=1;endArrow=open;elbow=vertical;startArrow=none;endFill=0;strokeColor=#545B64;rounded=0;fontSize=14;strokeWidth=2;" parent="1" edge="1">
          <mxGeometry x="-0.037" y="20" width="100" relative="1" as="geometry">
            <mxPoint x="584.5" y="254.5" as="sourcePoint" />
            <mxPoint x="854.5" y="254.5" as="targetPoint" />
            <mxPoint as="offset" />
          </mxGeometry>
        </mxCell>
        <mxCell id="SCVMTBWpLvtzJIhz15lM-18" value="&lt;span&gt;Label&lt;/span&gt;" style="edgeStyle=orthogonalEdgeStyle;html=1;endArrow=none;elbow=vertical;startArrow=open;endFill=0;strokeColor=#545B64;rounded=0;fontSize=14;strokeWidth=2;startFill=0;" parent="1" edge="1">
          <mxGeometry x="-0.037" y="20" width="100" relative="1" as="geometry">
            <mxPoint x="582.5" y="318" as="sourcePoint" />
            <mxPoint x="852.5" y="318" as="targetPoint" />
            <mxPoint as="offset" />
          </mxGeometry>
        </mxCell>
        <mxCell id="SCVMTBWpLvtzJIhz15lM-19" value="&lt;span&gt;Label&lt;/span&gt;" style="edgeStyle=orthogonalEdgeStyle;html=1;endArrow=open;elbow=vertical;startArrow=none;endFill=0;strokeColor=#545B64;rounded=0;fontSize=14;strokeWidth=2;" parent="1" edge="1">
          <mxGeometry x="-0.037" y="20" width="100" relative="1" as="geometry">
            <mxPoint x="594.5000000000002" y="484.5" as="sourcePoint" />
            <mxPoint x="714.5" y="484.5" as="targetPoint" />
            <mxPoint as="offset" />
          </mxGeometry>
        </mxCell>
        <mxCell id="SCVMTBWpLvtzJIhz15lM-20" value="&lt;span&gt;Label&lt;/span&gt;" style="edgeStyle=orthogonalEdgeStyle;html=1;endArrow=open;elbow=vertical;startArrow=none;endFill=0;strokeColor=#545B64;rounded=0;fontSize=14;strokeWidth=2;" parent="1" edge="1">
          <mxGeometry x="-0.037" y="20" width="100" relative="1" as="geometry">
            <mxPoint x="838.5000000000002" y="487.5" as="sourcePoint" />
            <mxPoint x="924.5" y="487.5" as="targetPoint" />
            <mxPoint as="offset" />
          </mxGeometry>
        </mxCell>
        <mxCell id="SCVMTBWpLvtzJIhz15lM-21" value="Label" style="text;html=1;resizable=0;points=[];autosize=1;align=left;verticalAlign=top;spacingTop=-4;fontSize=16;fontStyle=1" parent="1" vertex="1">
          <mxGeometry x="66.5" y="576.5" width="50" height="20" as="geometry" />
        </mxCell>
        <mxCell id="SCVMTBWpLvtzJIhz15lM-22" value="&lt;span&gt;Label&lt;/span&gt;" style="text;html=1;resizable=0;points=[];autosize=1;align=left;verticalAlign=top;spacingTop=-4;fontSize=14;fontStyle=1" parent="1" vertex="1">
          <mxGeometry x="136.5" y="656.5" width="50" height="20" as="geometry" />
        </mxCell>
        <mxCell id="SCVMTBWpLvtzJIhz15lM-23" value="" style="shape=curlyBracket;whiteSpace=wrap;html=1;rounded=1;fontSize=14;" parent="1" vertex="1">
          <mxGeometry x="76.5" y="691.5" width="20" height="290" as="geometry" />
        </mxCell>
        <mxCell id="SCVMTBWpLvtzJIhz15lM-24" value="Video Events" style="edgeStyle=orthogonalEdgeStyle;html=1;endArrow=open;elbow=vertical;startArrow=none;endFill=0;strokeColor=#545B64;rounded=0;fontSize=14;strokeWidth=2;" parent="1" edge="1">
          <mxGeometry x="-0.037" y="20" width="100" relative="1" as="geometry">
            <mxPoint x="261.5" y="753.5" as="sourcePoint" />
            <mxPoint x="342.5" y="753.5" as="targetPoint" />
            <mxPoint as="offset" />
          </mxGeometry>
        </mxCell>
        <mxCell id="SCVMTBWpLvtzJIhz15lM-25" value="" style="edgeStyle=orthogonalEdgeStyle;html=1;endArrow=open;elbow=vertical;startArrow=none;endFill=0;strokeColor=#545B64;rounded=0;fontSize=14;strokeWidth=2;" parent="1" edge="1">
          <mxGeometry x="-0.037" y="20" width="100" relative="1" as="geometry">
            <mxPoint x="443" y="750" as="sourcePoint" />
            <mxPoint x="524" y="750" as="targetPoint" />
            <mxPoint as="offset" />
          </mxGeometry>
        </mxCell>
        <mxCell id="SCVMTBWpLvtzJIhz15lM-26" value="" style="edgeStyle=orthogonalEdgeStyle;html=1;endArrow=open;elbow=vertical;startArrow=none;endFill=0;strokeColor=#545B64;rounded=0;fontSize=14;strokeWidth=2;" parent="1" edge="1">
          <mxGeometry x="-0.037" y="20" width="100" relative="1" as="geometry">
            <mxPoint x="622.5" y="750" as="sourcePoint" />
            <mxPoint x="703.5" y="750" as="targetPoint" />
            <mxPoint as="offset" />
          </mxGeometry>
        </mxCell>
        <mxCell id="SCVMTBWpLvtzJIhz15lM-27" value="" style="edgeStyle=orthogonalEdgeStyle;html=1;endArrow=open;elbow=vertical;startArrow=none;endFill=0;strokeColor=#545B64;rounded=0;fontSize=14;strokeWidth=2;" parent="1" edge="1">
          <mxGeometry x="-0.037" y="20" width="100" relative="1" as="geometry">
            <mxPoint x="811.5" y="747.5" as="sourcePoint" />
            <mxPoint x="892.5" y="747.5" as="targetPoint" />
            <mxPoint as="offset" />
          </mxGeometry>
        </mxCell>
        <mxCell id="SCVMTBWpLvtzJIhz15lM-28" value="Video Stream" style="edgeStyle=orthogonalEdgeStyle;html=1;endArrow=open;elbow=vertical;startArrow=none;endFill=0;strokeColor=#545B64;rounded=0;fontSize=14;strokeWidth=2;" parent="1" edge="1">
          <mxGeometry x="0.0038" y="-11" width="100" relative="1" as="geometry">
            <mxPoint x="262" y="913" as="sourcePoint" />
            <mxPoint x="472.5" y="913.5" as="targetPoint" />
            <mxPoint as="offset" />
            <Array as="points">
              <mxPoint x="367.5" y="913.5" />
            </Array>
          </mxGeometry>
        </mxCell>
        <mxCell id="SCVMTBWpLvtzJIhz15lM-29" value="" style="edgeStyle=orthogonalEdgeStyle;html=1;endArrow=open;elbow=vertical;startArrow=none;endFill=0;strokeColor=#545B64;rounded=0;fontSize=14;strokeWidth=2;" parent="1" edge="1">
          <mxGeometry x="0.0038" y="-11" width="100" relative="1" as="geometry">
            <mxPoint x="575.0714285714287" y="913.2142857142858" as="sourcePoint" />
            <mxPoint x="762.5" y="913.5" as="targetPoint" />
            <mxPoint as="offset" />
            <Array as="points">
              <mxPoint x="680.5" y="913.5" />
            </Array>
          </mxGeometry>
        </mxCell>
        <mxCell id="SCVMTBWpLvtzJIhz15lM-30" value="Build" style="outlineConnect=0;gradientColor=none;fontColor=#545B64;strokeColor=none;fillColor=#879196;dashed=0;verticalLabelPosition=bottom;verticalAlign=top;align=center;html=1;fontSize=12;fontStyle=0;aspect=fixed;shape=mxgraph.aws4.illustration_devices;pointerEvents=1" parent="1" vertex="1">
          <mxGeometry x="962.5" y="179.5" width="52" height="38" as="geometry" />
        </mxCell>
        <mxCell id="SCVMTBWpLvtzJIhz15lM-31" value="Train" style="outlineConnect=0;gradientColor=none;fontColor=#545B64;strokeColor=none;fillColor=#879196;dashed=0;verticalLabelPosition=bottom;verticalAlign=top;align=center;html=1;fontSize=12;fontStyle=0;aspect=fixed;shape=mxgraph.aws4.illustration_devices;pointerEvents=1" parent="1" vertex="1">
          <mxGeometry x="892.5" y="267.5" width="52" height="38" as="geometry" />
        </mxCell>
        <mxCell id="SCVMTBWpLvtzJIhz15lM-32" value="Optimize" style="outlineConnect=0;gradientColor=none;fontColor=#545B64;strokeColor=none;fillColor=#879196;dashed=0;verticalLabelPosition=bottom;verticalAlign=top;align=center;html=1;fontSize=12;fontStyle=0;aspect=fixed;shape=mxgraph.aws4.illustration_devices;pointerEvents=1" parent="1" vertex="1">
          <mxGeometry x="1032.5" y="267.5" width="52" height="38" as="geometry" />
        </mxCell>
        <mxCell id="SCVMTBWpLvtzJIhz15lM-33" value="" style="edgeStyle=orthogonalEdgeStyle;html=1;endArrow=open;elbow=vertical;startArrow=none;endFill=0;strokeColor=#545B64;rounded=0;fontSize=14;" parent="1" edge="1">
          <mxGeometry width="100" relative="1" as="geometry">
            <mxPoint x="958.5" y="293.5" as="sourcePoint" />
            <mxPoint x="1018.5" y="293.5" as="targetPoint" />
          </mxGeometry>
        </mxCell>
        <mxCell id="SCVMTBWpLvtzJIhz15lM-35" value="" style="edgeStyle=orthogonalEdgeStyle;html=1;endArrow=open;elbow=vertical;startArrow=none;endFill=0;strokeColor=#545B64;rounded=0;fontSize=14;" parent="1" edge="1">
          <mxGeometry width="100" relative="1" as="geometry">
            <mxPoint x="992.5" y="236.46774193548387" as="sourcePoint" />
            <mxPoint x="992.5" y="256.4677419354839" as="targetPoint" />
          </mxGeometry>
        </mxCell>
        <mxCell id="7OVz4w7n9kzEPWy-4BBC-3" value="" style="rounded=0;whiteSpace=wrap;html=1;fillColor=#EAEDED;fontSize=22;fontColor=#FFFFFF;strokeColor=none;labelBackgroundColor=none;" parent="1" vertex="1">
          <mxGeometry x="1151" y="51" width="539" height="1220" as="geometry" />
        </mxCell>
        <mxCell id="7OVz4w7n9kzEPWy-4BBC-4" value="1" style="rounded=1;whiteSpace=wrap;html=1;fillColor=#007CBD;strokeColor=none;fontColor=#FFFFFF;fontStyle=1;fontSize=22;labelBackgroundColor=none;" parent="1" vertex="1">
          <mxGeometry x="1169" y="63" width="40" height="38" as="geometry" />
        </mxCell>
        <mxCell id="7OVz4w7n9kzEPWy-4BBC-5" value="2" style="rounded=1;whiteSpace=wrap;html=1;fillColor=#007CBD;strokeColor=none;fontColor=#FFFFFF;fontStyle=1;fontSize=22;labelBackgroundColor=none;" parent="1" vertex="1">
          <mxGeometry x="1167.5" y="185" width="40" height="38" as="geometry" />
        </mxCell>
        <mxCell id="7OVz4w7n9kzEPWy-4BBC-6" value="3" style="rounded=1;whiteSpace=wrap;html=1;fillColor=#007CBD;strokeColor=none;fontColor=#FFFFFF;fontStyle=1;fontSize=22;labelBackgroundColor=none;" parent="1" vertex="1">
          <mxGeometry x="1167.5" y="305" width="40" height="38" as="geometry" />
        </mxCell>
        <mxCell id="7OVz4w7n9kzEPWy-4BBC-7" value="4" style="rounded=1;whiteSpace=wrap;html=1;fillColor=#007CBD;strokeColor=none;fontColor=#FFFFFF;fontStyle=1;fontSize=22;labelBackgroundColor=none;" parent="1" vertex="1">
          <mxGeometry x="1167.5" y="419" width="40" height="38" as="geometry" />
        </mxCell>
        <mxCell id="7OVz4w7n9kzEPWy-4BBC-8" value="5" style="rounded=1;whiteSpace=wrap;html=1;fillColor=#007CBD;strokeColor=none;fontColor=#FFFFFF;fontStyle=1;fontSize=22;labelBackgroundColor=none;" parent="1" vertex="1">
          <mxGeometry x="1169" y="536" width="40" height="38" as="geometry" />
        </mxCell>
        <mxCell id="7OVz4w7n9kzEPWy-4BBC-9" value="6" style="rounded=1;whiteSpace=wrap;html=1;fillColor=#007CBD;strokeColor=none;fontColor=#FFFFFF;fontStyle=1;fontSize=22;labelBackgroundColor=none;" parent="1" vertex="1">
          <mxGeometry x="1170" y="651" width="40" height="38" as="geometry" />
        </mxCell>
        <mxCell id="7OVz4w7n9kzEPWy-4BBC-10" value="7" style="rounded=1;whiteSpace=wrap;html=1;fillColor=#007CBD;strokeColor=none;fontColor=#FFFFFF;fontStyle=1;fontSize=22;labelBackgroundColor=none;" parent="1" vertex="1">
          <mxGeometry x="1169.5" y="767" width="40" height="38" as="geometry" />
        </mxCell>
        <mxCell id="7OVz4w7n9kzEPWy-4BBC-11" value="8" style="rounded=1;whiteSpace=wrap;html=1;fillColor=#007CBD;strokeColor=none;fontColor=#FFFFFF;fontStyle=1;fontSize=22;labelBackgroundColor=none;" parent="1" vertex="1">
          <mxGeometry x="1170" y="885" width="40" height="38" as="geometry" />
        </mxCell>
        <mxCell id="7OVz4w7n9kzEPWy-4BBC-12" value="9" style="rounded=1;whiteSpace=wrap;html=1;fillColor=#007CBD;strokeColor=none;fontColor=#FFFFFF;fontStyle=1;fontSize=22;labelBackgroundColor=none;" parent="1" vertex="1">
          <mxGeometry x="1168" y="1005" width="40" height="38" as="geometry" />
        </mxCell>
        <mxCell id="7OVz4w7n9kzEPWy-4BBC-13" value="&lt;span&gt;Lorem ipsum dolor sit amet, consectetur adipiscing elit, sed do eiusmod tempor incididunt ut labore et dolore magna aliqua. Ut enim ad minim veniam, quis nostrud exercitation ullamco laboris nisi ut aliquip ex ea commodo consequat. Duis aute irure dolor in reprehenderit in voluptate velit esse cillum dolore eu fugiat nulla pariatur. Excepteur sint occaecat cupidatat non proident, sunt in culpa qui officia deserunt mollit anim id est laborum.&lt;/span&gt;&lt;br&gt;" style="text;html=1;align=left;verticalAlign=top;spacingTop=-4;fontSize=14;labelBackgroundColor=none;whiteSpace=wrap;" parent="1" vertex="1">
          <mxGeometry x="1220.5" y="62.5" width="449" height="118" as="geometry" />
        </mxCell>
        <mxCell id="7OVz4w7n9kzEPWy-4BBC-14" value="&lt;span&gt;Lorem ipsum dolor sit amet, consectetur adipiscing elit, sed do eiusmod tempor incididunt ut labore et dolore magna aliqua. Ut enim ad minim veniam, quis nostrud exercitation ullamco laboris nisi ut aliquip ex ea commodo consequat. Duis aute irure dolor in reprehenderit in voluptate velit esse cillum dolore eu fugiat nulla pariatur. Excepteur sint occaecat cupidatat non proident, sunt in culpa qui officia deserunt mollit anim id est laborum.&lt;/span&gt;&lt;br&gt;" style="text;html=1;align=left;verticalAlign=top;spacingTop=-4;fontSize=14;labelBackgroundColor=none;whiteSpace=wrap;" parent="1" vertex="1">
          <mxGeometry x="1219.5" y="185.5" width="450" height="115" as="geometry" />
        </mxCell>
        <mxCell id="7OVz4w7n9kzEPWy-4BBC-15" value="&lt;span&gt;Lorem ipsum dolor sit amet, consectetur adipiscing elit, sed do eiusmod tempor incididunt ut labore et dolore magna aliqua. Ut enim ad minim veniam, quis nostrud exercitation ullamco laboris nisi ut aliquip ex ea commodo consequat. Duis aute irure dolor in reprehenderit in voluptate velit esse cillum dolore eu fugiat nulla pariatur. Excepteur sint occaecat cupidatat non proident, sunt in culpa qui officia deserunt mollit anim id est laborum.&lt;/span&gt;&lt;br&gt;" style="text;html=1;align=left;verticalAlign=top;spacingTop=-4;fontSize=14;labelBackgroundColor=none;whiteSpace=wrap;" parent="1" vertex="1">
          <mxGeometry x="1219.5" y="303.5" width="450" height="117" as="geometry" />
        </mxCell>
        <mxCell id="7OVz4w7n9kzEPWy-4BBC-16" value="&lt;span&gt;Lorem ipsum dolor sit amet, consectetur adipiscing elit, sed do eiusmod tempor incididunt ut labore et dolore magna aliqua. Ut enim ad minim veniam, quis nostrud exercitation ullamco laboris nisi ut aliquip ex ea commodo consequat. Duis aute irure dolor in reprehenderit in voluptate velit esse cillum dolore eu fugiat nulla pariatur. Excepteur sint occaecat cupidatat non proident, sunt in culpa qui officia deserunt mollit anim id est laborum.&lt;/span&gt;&lt;br&gt;" style="text;html=1;align=left;verticalAlign=top;spacingTop=-4;fontSize=14;labelBackgroundColor=none;whiteSpace=wrap;" parent="1" vertex="1">
          <mxGeometry x="1219.5" y="419.5" width="450" height="121" as="geometry" />
        </mxCell>
        <mxCell id="7OVz4w7n9kzEPWy-4BBC-17" value="&lt;span&gt;Lorem ipsum dolor sit amet, consectetur adipiscing elit, sed do eiusmod tempor incididunt ut labore et dolore magna aliqua. Ut enim ad minim veniam, quis nostrud exercitation ullamco laboris nisi ut aliquip ex ea commodo consequat. Duis aute irure dolor in reprehenderit in voluptate velit esse cillum dolore eu fugiat nulla pariatur. Excepteur sint occaecat cupidatat non proident, sunt in culpa qui officia deserunt mollit anim id est laborum.&lt;/span&gt;&lt;br&gt;" style="text;html=1;align=left;verticalAlign=top;spacingTop=-4;fontSize=14;labelBackgroundColor=none;whiteSpace=wrap;" parent="1" vertex="1">
          <mxGeometry x="1220.5" y="536.5" width="449" height="114" as="geometry" />
        </mxCell>
        <mxCell id="7OVz4w7n9kzEPWy-4BBC-18" value="&lt;span&gt;Lorem ipsum dolor sit amet, consectetur adipiscing elit, sed do eiusmod tempor incididunt ut labore et dolore magna aliqua. Ut enim ad minim veniam, quis nostrud exercitation ullamco laboris nisi ut aliquip ex ea commodo consequat. Duis aute irure dolor in reprehenderit in voluptate velit esse cillum dolore eu fugiat nulla pariatur. Excepteur sint occaecat cupidatat non proident, sunt in culpa qui officia deserunt mollit anim id est laborum.&lt;/span&gt;&lt;br&gt;" style="text;html=1;align=left;verticalAlign=top;spacingTop=-4;fontSize=14;labelBackgroundColor=none;whiteSpace=wrap;" parent="1" vertex="1">
          <mxGeometry x="1220.5" y="652.5" width="450" height="118" as="geometry" />
        </mxCell>
        <mxCell id="7OVz4w7n9kzEPWy-4BBC-19" value="&lt;span&gt;Lorem ipsum dolor sit amet, consectetur adipiscing elit, sed do eiusmod tempor incididunt ut labore et dolore magna aliqua. Ut enim ad minim veniam, quis nostrud exercitation ullamco laboris nisi ut aliquip ex ea commodo consequat. Duis aute irure dolor in reprehenderit in voluptate velit esse cillum dolore eu fugiat nulla pariatur. Excepteur sint occaecat cupidatat non proident, sunt in culpa qui officia deserunt mollit anim id est laborum.&lt;/span&gt;&lt;br&gt;" style="text;html=1;align=left;verticalAlign=top;spacingTop=-4;fontSize=14;labelBackgroundColor=none;whiteSpace=wrap;" parent="1" vertex="1">
          <mxGeometry x="1220.5" y="767.5" width="449" height="113" as="geometry" />
        </mxCell>
        <mxCell id="7OVz4w7n9kzEPWy-4BBC-20" value="&lt;span&gt;Lorem ipsum dolor sit amet, consectetur adipiscing elit, sed do eiusmod tempor incididunt ut labore et dolore magna aliqua. Ut enim ad minim veniam, quis nostrud exercitation ullamco laboris nisi ut aliquip ex ea commodo consequat. Duis aute irure dolor in reprehenderit in voluptate velit esse cillum dolore eu fugiat nulla pariatur. Excepteur sint occaecat cupidatat non proident, sunt in culpa qui officia deserunt mollit anim id est laborum.&lt;/span&gt;&lt;br&gt;" style="text;html=1;align=left;verticalAlign=top;spacingTop=-4;fontSize=14;labelBackgroundColor=none;whiteSpace=wrap;" parent="1" vertex="1">
          <mxGeometry x="1220.5" y="886.5" width="449" height="124" as="geometry" />
        </mxCell>
        <mxCell id="7OVz4w7n9kzEPWy-4BBC-21" value="&lt;span&gt;Lorem ipsum dolor sit amet, consectetur adipiscing elit, sed do eiusmod tempor incididunt ut labore et dolore magna aliqua. Ut enim ad minim veniam, quis nostrud exercitation ullamco laboris nisi ut aliquip ex ea commodo consequat. Duis aute irure dolor in reprehenderit in voluptate velit esse cillum dolore eu fugiat nulla pariatur. Excepteur sint occaecat cupidatat non proident, sunt in culpa qui officia deserunt mollit anim id est laborum.&lt;/span&gt;&lt;br&gt;" style="text;html=1;align=left;verticalAlign=top;spacingTop=-4;fontSize=14;labelBackgroundColor=none;whiteSpace=wrap;" parent="1" vertex="1">
          <mxGeometry x="1220.5" y="1005.5" width="449" height="115" as="geometry" />
        </mxCell>
        <mxCell id="7OVz4w7n9kzEPWy-4BBC-22" value="10" style="rounded=1;whiteSpace=wrap;html=1;fillColor=#007CBD;strokeColor=none;fontColor=#FFFFFF;fontStyle=1;fontSize=22;labelBackgroundColor=none;" parent="1" vertex="1">
          <mxGeometry x="1169" y="1130.5" width="40" height="38" as="geometry" />
        </mxCell>
        <mxCell id="7OVz4w7n9kzEPWy-4BBC-23" value="&lt;span&gt;Lorem ipsum dolor sit amet, consectetur adipiscing elit, sed do eiusmod tempor incididunt ut labore et dolore magna aliqua. Ut enim ad minim veniam, quis nostrud exercitation ullamco laboris nisi ut aliquip ex ea commodo consequat. Duis aute irure dolor in reprehenderit in voluptate velit esse cillum dolore eu fugiat nulla pariatur. Excepteur sint occaecat cupidatat non proident, sunt in culpa qui officia deserunt mollit anim id est laborum.&lt;/span&gt;&lt;br&gt;" style="text;html=1;align=left;verticalAlign=top;spacingTop=-4;fontSize=14;labelBackgroundColor=none;whiteSpace=wrap;" parent="1" vertex="1">
          <mxGeometry x="1221.5" y="1131" width="449" height="115" as="geometry" />
        </mxCell>
      </root>
    </mxGraphModel>
  </diagram>
  <diagram id="dbrijQHS0yfpQ-qkxrmC" name="Page-2">
    <mxGraphModel dx="1209" dy="675" grid="1" gridSize="10" guides="1" tooltips="1" connect="1" arrows="1" fold="1" page="1" pageScale="1" pageWidth="1169" pageHeight="827" math="0" shadow="0">
      <root>
        <mxCell id="KD0zB31gbqATZLr4ub00-0" />
        <mxCell id="KD0zB31gbqATZLr4ub00-1" parent="KD0zB31gbqATZLr4ub00-0" />
        <mxCell id="KD0zB31gbqATZLr4ub00-2" value="Mendix" style="text;html=1;resizable=0;points=[];autosize=1;align=left;verticalAlign=top;spacingTop=-4;fontSize=30;fontStyle=1" vertex="1" parent="KD0zB31gbqATZLr4ub00-1">
          <mxGeometry x="56.5" y="64.5" width="120" height="40" as="geometry" />
        </mxCell>
        <mxCell id="KD0zB31gbqATZLr4ub00-3" value="SysOps Day 2" style="text;html=1;resizable=0;points=[];autosize=1;align=left;verticalAlign=top;spacingTop=-4;fontSize=16;" vertex="1" parent="KD0zB31gbqATZLr4ub00-1">
          <mxGeometry x="56.5" y="114.5" width="120" height="20" as="geometry" />
        </mxCell>
        <mxCell id="KD0zB31gbqATZLr4ub00-4" value="" style="line;strokeWidth=2;html=1;fontSize=14;" vertex="1" parent="KD0zB31gbqATZLr4ub00-1">
          <mxGeometry x="52.5" y="139.5" width="1060" height="10" as="geometry" />
        </mxCell>
      </root>
    </mxGraphModel>
  </diagram>
  <diagram name="Copy of Page-2" id="yDDFxl3zUJpqaGCbSfic">
    <mxGraphModel dx="1209" dy="675" grid="1" gridSize="10" guides="1" tooltips="1" connect="1" arrows="1" fold="1" page="1" pageScale="1" pageWidth="1169" pageHeight="827" math="0" shadow="0">
      <root>
        <mxCell id="rHb6Wj0Xk4SzmhcgFCl5-0" />
        <mxCell id="rHb6Wj0Xk4SzmhcgFCl5-1" parent="rHb6Wj0Xk4SzmhcgFCl5-0" />
        <mxCell id="rHb6Wj0Xk4SzmhcgFCl5-2" value="Mendix" style="text;html=1;resizable=0;points=[];autosize=1;align=left;verticalAlign=top;spacingTop=-4;fontSize=30;fontStyle=1" vertex="1" parent="rHb6Wj0Xk4SzmhcgFCl5-1">
          <mxGeometry x="56.5" y="64.5" width="120" height="40" as="geometry" />
        </mxCell>
        <mxCell id="rHb6Wj0Xk4SzmhcgFCl5-3" value="SysOps Day 2" style="text;html=1;resizable=0;points=[];autosize=1;align=left;verticalAlign=top;spacingTop=-4;fontSize=16;" vertex="1" parent="rHb6Wj0Xk4SzmhcgFCl5-1">
          <mxGeometry x="56.5" y="114.5" width="120" height="20" as="geometry" />
        </mxCell>
        <mxCell id="rHb6Wj0Xk4SzmhcgFCl5-4" value="" style="line;strokeWidth=2;html=1;fontSize=14;" vertex="1" parent="rHb6Wj0Xk4SzmhcgFCl5-1">
          <mxGeometry x="52.5" y="139.5" width="1060" height="10" as="geometry" />
        </mxCell>
      </root>
    </mxGraphModel>
  </diagram>
  <diagram name="Copy of Copy of Page-2" id="kYS6EpzF9orKReAp9yXO">
    <mxGraphModel dx="1209" dy="675" grid="1" gridSize="10" guides="1" tooltips="1" connect="1" arrows="1" fold="1" page="1" pageScale="1" pageWidth="1169" pageHeight="827" math="0" shadow="0">
      <root>
        <mxCell id="BcUIhzoiJTIjBdGsJF0v-0" />
        <mxCell id="BcUIhzoiJTIjBdGsJF0v-1" parent="BcUIhzoiJTIjBdGsJF0v-0" />
        <mxCell id="BcUIhzoiJTIjBdGsJF0v-2" value="Mendix" style="text;html=1;resizable=0;points=[];autosize=1;align=left;verticalAlign=top;spacingTop=-4;fontSize=30;fontStyle=1" vertex="1" parent="BcUIhzoiJTIjBdGsJF0v-1">
          <mxGeometry x="56.5" y="64.5" width="120" height="40" as="geometry" />
        </mxCell>
        <mxCell id="BcUIhzoiJTIjBdGsJF0v-3" value="SysOps Day 2" style="text;html=1;resizable=0;points=[];autosize=1;align=left;verticalAlign=top;spacingTop=-4;fontSize=16;" vertex="1" parent="BcUIhzoiJTIjBdGsJF0v-1">
          <mxGeometry x="56.5" y="114.5" width="120" height="20" as="geometry" />
        </mxCell>
        <mxCell id="BcUIhzoiJTIjBdGsJF0v-4" value="" style="line;strokeWidth=2;html=1;fontSize=14;" vertex="1" parent="BcUIhzoiJTIjBdGsJF0v-1">
          <mxGeometry x="52.5" y="139.5" width="1060" height="10" as="geometry" />
        </mxCell>
      </root>
    </mxGraphModel>
  </diagram>
  <diagram name="Copy of Copy of Copy of Page-2" id="saZ9u9lb-0b4DkJFHwO8">
    <mxGraphModel dx="1185" dy="662" grid="1" gridSize="10" guides="1" tooltips="1" connect="1" arrows="1" fold="1" page="1" pageScale="1" pageWidth="1169" pageHeight="827" math="0" shadow="0">
      <root>
        <mxCell id="Ah0LS19ivj4YxILUlv5m-0" />
        <mxCell id="Ah0LS19ivj4YxILUlv5m-1" parent="Ah0LS19ivj4YxILUlv5m-0" />
        <mxCell id="Ah0LS19ivj4YxILUlv5m-14" value="ELASTIC&amp;nbsp;&lt;br&gt;CONTAINER&amp;nbsp;&lt;br&gt;SERVICE" style="ellipse;whiteSpace=wrap;html=1;" vertex="1" parent="Ah0LS19ivj4YxILUlv5m-1">
          <mxGeometry x="70" y="350" width="1010" height="100" as="geometry" />
        </mxCell>
        <mxCell id="Ah0LS19ivj4YxILUlv5m-10" value="DOCKER HOST&lt;br&gt;(EC2 INSTANCE)" style="rounded=1;whiteSpace=wrap;html=1;fillColor=#d5e8d4;strokeColor=#82b366;" vertex="1" parent="Ah0LS19ivj4YxILUlv5m-1">
          <mxGeometry x="596.5" y="200" width="360" height="200" as="geometry" />
        </mxCell>
        <mxCell id="Ah0LS19ivj4YxILUlv5m-2" value="Mendix" style="text;html=1;resizable=0;points=[];autosize=1;align=left;verticalAlign=top;spacingTop=-4;fontSize=30;fontStyle=1" vertex="1" parent="Ah0LS19ivj4YxILUlv5m-1">
          <mxGeometry x="56.5" y="64.5" width="120" height="40" as="geometry" />
        </mxCell>
        <mxCell id="Ah0LS19ivj4YxILUlv5m-3" value="SysOps Day 2" style="text;html=1;resizable=0;points=[];autosize=1;align=left;verticalAlign=top;spacingTop=-4;fontSize=16;" vertex="1" parent="Ah0LS19ivj4YxILUlv5m-1">
          <mxGeometry x="56.5" y="114.5" width="120" height="20" as="geometry" />
        </mxCell>
        <mxCell id="Ah0LS19ivj4YxILUlv5m-4" value="" style="line;strokeWidth=2;html=1;fontSize=14;" vertex="1" parent="Ah0LS19ivj4YxILUlv5m-1">
          <mxGeometry x="52.5" y="139.5" width="1060" height="10" as="geometry" />
        </mxCell>
        <mxCell id="Ah0LS19ivj4YxILUlv5m-5" value="DOCKER HOST&lt;br&gt;(EC2 INSTANCE)" style="rounded=1;whiteSpace=wrap;html=1;fillColor=#d5e8d4;strokeColor=#82b366;" vertex="1" parent="Ah0LS19ivj4YxILUlv5m-1">
          <mxGeometry x="176.5" y="200" width="360" height="200" as="geometry" />
        </mxCell>
        <mxCell id="Ah0LS19ivj4YxILUlv5m-15" value="MyApp Service:&lt;br&gt;task: MyTask&lt;br&gt;replicas: 4" style="rounded=1;whiteSpace=wrap;html=1;align=left;" vertex="1" parent="Ah0LS19ivj4YxILUlv5m-1">
          <mxGeometry x="260" y="425" width="120" height="60" as="geometry" />
        </mxCell>
        <mxCell id="Ah0LS19ivj4YxILUlv5m-16" value="httpd" style="rounded=1;whiteSpace=wrap;html=1;" vertex="1" parent="Ah0LS19ivj4YxILUlv5m-1">
          <mxGeometry x="200" y="210" width="120" height="60" as="geometry" />
        </mxCell>
        <mxCell id="Ah0LS19ivj4YxILUlv5m-18" value="httpd" style="rounded=1;whiteSpace=wrap;html=1;" vertex="1" parent="Ah0LS19ivj4YxILUlv5m-1">
          <mxGeometry x="820" y="210" width="120" height="60" as="geometry" />
        </mxCell>
        <mxCell id="Ah0LS19ivj4YxILUlv5m-19" value="httpd" style="rounded=1;whiteSpace=wrap;html=1;" vertex="1" parent="Ah0LS19ivj4YxILUlv5m-1">
          <mxGeometry x="660" y="210" width="120" height="60" as="geometry" />
        </mxCell>
        <mxCell id="Ah0LS19ivj4YxILUlv5m-20" value="httpd" style="rounded=1;whiteSpace=wrap;html=1;" vertex="1" parent="Ah0LS19ivj4YxILUlv5m-1">
          <mxGeometry x="360" y="210" width="120" height="60" as="geometry" />
        </mxCell>
        <mxCell id="Ah0LS19ivj4YxILUlv5m-21" value="MyTask:&lt;br&gt;image: httpd&lt;br&gt;cpu:&lt;br&gt;mem:&lt;br&gt;" style="rounded=1;whiteSpace=wrap;html=1;align=left;" vertex="1" parent="Ah0LS19ivj4YxILUlv5m-1">
          <mxGeometry x="440" y="485" width="120" height="60" as="geometry" />
        </mxCell>
        <mxCell id="Ah0LS19ivj4YxILUlv5m-22" value="" style="shape=flexArrow;endArrow=classic;html=1;entryX=0;entryY=0.911;entryDx=0;entryDy=0;entryPerimeter=0;" edge="1" parent="Ah0LS19ivj4YxILUlv5m-1" target="Ah0LS19ivj4YxILUlv5m-21">
          <mxGeometry width="50" height="50" relative="1" as="geometry">
            <mxPoint x="310" y="490" as="sourcePoint" />
            <mxPoint x="360" y="440" as="targetPoint" />
          </mxGeometry>
        </mxCell>
        <mxCell id="Ah0LS19ivj4YxILUlv5m-23" value="ECS AGENT" style="rounded=1;whiteSpace=wrap;html=1;" vertex="1" parent="Ah0LS19ivj4YxILUlv5m-1">
          <mxGeometry x="200" y="350" width="70" height="40" as="geometry" />
        </mxCell>
        <mxCell id="Ah0LS19ivj4YxILUlv5m-24" value="ECS AGENT" style="rounded=1;whiteSpace=wrap;html=1;" vertex="1" parent="Ah0LS19ivj4YxILUlv5m-1">
          <mxGeometry x="610" y="350" width="70" height="40" as="geometry" />
        </mxCell>
      </root>
    </mxGraphModel>
  </diagram>
  <diagram name="Copy of Copy of Copy of Copy of Page-2" id="XKb2G0CSa9Vp8APigfSs">
    <mxGraphModel dx="1422" dy="794" grid="1" gridSize="10" guides="1" tooltips="1" connect="1" arrows="1" fold="1" page="1" pageScale="1" pageWidth="1169" pageHeight="827" math="0" shadow="0">
      <root>
        <mxCell id="t1-pi0DV0um_q12Yb33u-0" />
        <mxCell id="t1-pi0DV0um_q12Yb33u-1" parent="t1-pi0DV0um_q12Yb33u-0" />
        <mxCell id="t1-pi0DV0um_q12Yb33u-17" value="FARGATE" style="ellipse;whiteSpace=wrap;html=1;" vertex="1" parent="t1-pi0DV0um_q12Yb33u-1">
          <mxGeometry x="50" y="170" width="1040" height="140" as="geometry" />
        </mxCell>
        <mxCell id="t1-pi0DV0um_q12Yb33u-2" value="ELASTIC&amp;nbsp;&lt;br&gt;CONTAINER&amp;nbsp;&lt;br&gt;SERVICE" style="ellipse;whiteSpace=wrap;html=1;" vertex="1" parent="t1-pi0DV0um_q12Yb33u-1">
          <mxGeometry x="70" y="350" width="1010" height="100" as="geometry" />
        </mxCell>
        <mxCell id="t1-pi0DV0um_q12Yb33u-4" value="Mendix" style="text;html=1;resizable=0;points=[];autosize=1;align=left;verticalAlign=top;spacingTop=-4;fontSize=30;fontStyle=1" vertex="1" parent="t1-pi0DV0um_q12Yb33u-1">
          <mxGeometry x="56.5" y="64.5" width="120" height="40" as="geometry" />
        </mxCell>
        <mxCell id="t1-pi0DV0um_q12Yb33u-5" value="SysOps Day 2" style="text;html=1;resizable=0;points=[];autosize=1;align=left;verticalAlign=top;spacingTop=-4;fontSize=16;" vertex="1" parent="t1-pi0DV0um_q12Yb33u-1">
          <mxGeometry x="56.5" y="114.5" width="120" height="20" as="geometry" />
        </mxCell>
        <mxCell id="t1-pi0DV0um_q12Yb33u-6" value="" style="line;strokeWidth=2;html=1;fontSize=14;" vertex="1" parent="t1-pi0DV0um_q12Yb33u-1">
          <mxGeometry x="52.5" y="139.5" width="1060" height="10" as="geometry" />
        </mxCell>
        <mxCell id="t1-pi0DV0um_q12Yb33u-8" value="MyApp Service:&lt;br&gt;task: MyTask&lt;br&gt;replicas: 4" style="rounded=1;whiteSpace=wrap;html=1;align=left;" vertex="1" parent="t1-pi0DV0um_q12Yb33u-1">
          <mxGeometry x="260" y="425" width="120" height="60" as="geometry" />
        </mxCell>
        <mxCell id="t1-pi0DV0um_q12Yb33u-9" value="httpd" style="rounded=1;whiteSpace=wrap;html=1;" vertex="1" parent="t1-pi0DV0um_q12Yb33u-1">
          <mxGeometry x="200" y="210" width="120" height="60" as="geometry" />
        </mxCell>
        <mxCell id="t1-pi0DV0um_q12Yb33u-10" value="httpd" style="rounded=1;whiteSpace=wrap;html=1;" vertex="1" parent="t1-pi0DV0um_q12Yb33u-1">
          <mxGeometry x="820" y="210" width="120" height="60" as="geometry" />
        </mxCell>
        <mxCell id="t1-pi0DV0um_q12Yb33u-11" value="httpd" style="rounded=1;whiteSpace=wrap;html=1;" vertex="1" parent="t1-pi0DV0um_q12Yb33u-1">
          <mxGeometry x="660" y="210" width="120" height="60" as="geometry" />
        </mxCell>
        <mxCell id="t1-pi0DV0um_q12Yb33u-12" value="httpd" style="rounded=1;whiteSpace=wrap;html=1;" vertex="1" parent="t1-pi0DV0um_q12Yb33u-1">
          <mxGeometry x="360" y="210" width="120" height="60" as="geometry" />
        </mxCell>
        <mxCell id="t1-pi0DV0um_q12Yb33u-13" value="MyTask:&lt;br&gt;image: httpd&lt;br&gt;cpu:&lt;br&gt;mem:&lt;br&gt;" style="rounded=1;whiteSpace=wrap;html=1;align=left;" vertex="1" parent="t1-pi0DV0um_q12Yb33u-1">
          <mxGeometry x="440" y="485" width="120" height="60" as="geometry" />
        </mxCell>
        <mxCell id="t1-pi0DV0um_q12Yb33u-14" value="" style="shape=flexArrow;endArrow=classic;html=1;entryX=0;entryY=0.911;entryDx=0;entryDy=0;entryPerimeter=0;" edge="1" parent="t1-pi0DV0um_q12Yb33u-1" target="t1-pi0DV0um_q12Yb33u-13">
          <mxGeometry width="50" height="50" relative="1" as="geometry">
            <mxPoint x="310" y="490" as="sourcePoint" />
            <mxPoint x="360" y="440" as="targetPoint" />
          </mxGeometry>
        </mxCell>
      </root>
    </mxGraphModel>
  </diagram>
  <diagram id="c3S4hIioUZksfVn6XFW8" name="Page-7">
    <mxGraphModel dx="1185" dy="662" grid="1" gridSize="10" guides="1" tooltips="1" connect="1" arrows="1" fold="1" page="1" pageScale="1" pageWidth="1169" pageHeight="827" math="0" shadow="0">
      <root>
        <mxCell id="ZDdzB31ks4PhJ_9gm3b4-0" />
        <mxCell id="ZDdzB31ks4PhJ_9gm3b4-1" parent="ZDdzB31ks4PhJ_9gm3b4-0" />
        <mxCell id="ZDdzB31ks4PhJ_9gm3b4-2" value="K8S MASTER" style="rounded=1;whiteSpace=wrap;html=1;align=left;" vertex="1" parent="ZDdzB31ks4PhJ_9gm3b4-1">
          <mxGeometry x="180" y="160" width="120" height="60" as="geometry" />
        </mxCell>
        <mxCell id="ZDdzB31ks4PhJ_9gm3b4-3" value="ETCD" style="pointerEvents=1;shadow=0;dashed=0;html=1;strokeColor=none;fillColor=#434445;aspect=fixed;labelPosition=center;verticalLabelPosition=bottom;verticalAlign=top;align=center;outlineConnect=0;shape=mxgraph.vvd.datastore;" vertex="1" parent="ZDdzB31ks4PhJ_9gm3b4-1">
          <mxGeometry x="210" y="90" width="50" height="39" as="geometry" />
        </mxCell>
        <mxCell id="ZDdzB31ks4PhJ_9gm3b4-4" value="WORKER1&lt;br&gt;EC2" style="rounded=1;whiteSpace=wrap;html=1;align=left;fillColor=#f8cecc;strokeColor=#b85450;" vertex="1" parent="ZDdzB31ks4PhJ_9gm3b4-1">
          <mxGeometry x="180" y="300" width="120" height="60" as="geometry" />
        </mxCell>
        <mxCell id="ZDdzB31ks4PhJ_9gm3b4-5" value="WORKER2&lt;br&gt;EC2" style="rounded=1;whiteSpace=wrap;html=1;align=left;fillColor=#f8cecc;strokeColor=#b85450;" vertex="1" parent="ZDdzB31ks4PhJ_9gm3b4-1">
          <mxGeometry x="380" y="300" width="120" height="60" as="geometry" />
        </mxCell>
        <mxCell id="ZDdzB31ks4PhJ_9gm3b4-6" value="K8S MASTER" style="rounded=1;whiteSpace=wrap;html=1;align=left;" vertex="1" parent="ZDdzB31ks4PhJ_9gm3b4-1">
          <mxGeometry x="340" y="160" width="120" height="60" as="geometry" />
        </mxCell>
        <mxCell id="ZDdzB31ks4PhJ_9gm3b4-7" value="ETCD" style="pointerEvents=1;shadow=0;dashed=0;html=1;strokeColor=none;fillColor=#434445;aspect=fixed;labelPosition=center;verticalLabelPosition=bottom;verticalAlign=top;align=center;outlineConnect=0;shape=mxgraph.vvd.datastore;" vertex="1" parent="ZDdzB31ks4PhJ_9gm3b4-1">
          <mxGeometry x="370" y="90" width="50" height="39" as="geometry" />
        </mxCell>
        <mxCell id="ZDdzB31ks4PhJ_9gm3b4-8" value="" style="rounded=1;whiteSpace=wrap;html=1;align=left;fillColor=#dae8fc;strokeColor=#6c8ebf;" vertex="1" parent="ZDdzB31ks4PhJ_9gm3b4-1">
          <mxGeometry x="120" y="69" width="420" height="171" as="geometry" />
        </mxCell>
        <mxCell id="ZDdzB31ks4PhJ_9gm3b4-9" value="EKS&lt;br&gt;ELASTIC KUBERNETES SERVICE" style="text;html=1;strokeColor=none;fillColor=none;align=center;verticalAlign=middle;whiteSpace=wrap;rounded=0;" vertex="1" parent="ZDdzB31ks4PhJ_9gm3b4-1">
          <mxGeometry x="320" y="129" width="40" height="20" as="geometry" />
        </mxCell>
        <mxCell id="ZDdzB31ks4PhJ_9gm3b4-10" value="kind: Deployment&lt;br&gt;meta:&lt;br&gt;name: myAppDeploy&lt;br&gt;spec:&lt;br&gt;replica: 3&lt;br&gt;containerspec:&lt;br&gt;image:httpd" style="rounded=1;whiteSpace=wrap;html=1;align=left;" vertex="1" parent="ZDdzB31ks4PhJ_9gm3b4-1">
          <mxGeometry x="470" y="10" width="170" height="190" as="geometry" />
        </mxCell>
        <mxCell id="ZDdzB31ks4PhJ_9gm3b4-15" value="fargate" style="ellipse;whiteSpace=wrap;html=1;align=center;" vertex="1" parent="ZDdzB31ks4PhJ_9gm3b4-1">
          <mxGeometry x="90" y="290" width="540" height="80" as="geometry" />
        </mxCell>
        <mxCell id="ZDdzB31ks4PhJ_9gm3b4-11" value="httpd" style="rounded=1;whiteSpace=wrap;html=1;align=left;" vertex="1" parent="ZDdzB31ks4PhJ_9gm3b4-1">
          <mxGeometry x="390" y="270" width="40" height="40" as="geometry" />
        </mxCell>
        <mxCell id="ZDdzB31ks4PhJ_9gm3b4-12" value="httpd" style="rounded=1;whiteSpace=wrap;html=1;align=left;" vertex="1" parent="ZDdzB31ks4PhJ_9gm3b4-1">
          <mxGeometry x="260" y="270" width="40" height="40" as="geometry" />
        </mxCell>
        <mxCell id="ZDdzB31ks4PhJ_9gm3b4-13" value="httpd" style="rounded=1;whiteSpace=wrap;html=1;align=left;" vertex="1" parent="ZDdzB31ks4PhJ_9gm3b4-1">
          <mxGeometry x="210" y="270" width="40" height="40" as="geometry" />
        </mxCell>
      </root>
    </mxGraphModel>
  </diagram>
  <diagram id="bl4BirJeuFwUWA3y_5W3" name="Page-8">
    <mxGraphModel dx="1422" dy="794" grid="1" gridSize="10" guides="1" tooltips="1" connect="1" arrows="1" fold="1" page="1" pageScale="1" pageWidth="1169" pageHeight="827" math="0" shadow="0">
      <root>
        <mxCell id="IUG04m0RzGx1vQvg1WGh-0" />
        <mxCell id="IUG04m0RzGx1vQvg1WGh-1" parent="IUG04m0RzGx1vQvg1WGh-0" />
        <mxCell id="IUG04m0RzGx1vQvg1WGh-2" value="" style="endArrow=none;html=1;strokeWidth=5;" edge="1" parent="IUG04m0RzGx1vQvg1WGh-1" target="IUG04m0RzGx1vQvg1WGh-3">
          <mxGeometry width="50" height="50" relative="1" as="geometry">
            <mxPoint x="550" y="680" as="sourcePoint" />
            <mxPoint x="550" y="110" as="targetPoint" />
          </mxGeometry>
        </mxCell>
        <mxCell id="IUG04m0RzGx1vQvg1WGh-3" value="https://api.mendix.com&lt;br style=&quot;font-size: 18px;&quot;&gt;" style="text;html=1;strokeColor=none;fillColor=none;align=center;verticalAlign=middle;whiteSpace=wrap;rounded=0;fontSize=18;" vertex="1" parent="IUG04m0RzGx1vQvg1WGh-1">
          <mxGeometry x="530" y="100" width="40" height="20" as="geometry" />
        </mxCell>
        <mxCell id="IUG04m0RzGx1vQvg1WGh-4" value="/customers" style="text;html=1;strokeColor=none;fillColor=none;align=center;verticalAlign=middle;whiteSpace=wrap;rounded=0;fontSize=18;" vertex="1" parent="IUG04m0RzGx1vQvg1WGh-1">
          <mxGeometry x="590" y="220" width="40" height="20" as="geometry" />
        </mxCell>
        <mxCell id="IUG04m0RzGx1vQvg1WGh-5" value="/suppliers" style="text;html=1;strokeColor=none;fillColor=none;align=center;verticalAlign=middle;whiteSpace=wrap;rounded=0;fontSize=18;" vertex="1" parent="IUG04m0RzGx1vQvg1WGh-1">
          <mxGeometry x="590" y="414" width="40" height="20" as="geometry" />
        </mxCell>
        <mxCell id="IUG04m0RzGx1vQvg1WGh-7" value="GET" style="text;html=1;strokeColor=none;fillColor=none;align=center;verticalAlign=middle;whiteSpace=wrap;rounded=0;fontSize=18;" vertex="1" parent="IUG04m0RzGx1vQvg1WGh-1">
          <mxGeometry x="600" y="250" width="40" height="20" as="geometry" />
        </mxCell>
        <mxCell id="IUG04m0RzGx1vQvg1WGh-8" value="Actor&lt;br&gt;HTTP GET&lt;br&gt;https://api.mendix.com/customers" style="shape=umlActor;verticalLabelPosition=bottom;verticalAlign=top;html=1;outlineConnect=0;align=left;fontSize=18;" vertex="1" parent="IUG04m0RzGx1vQvg1WGh-1">
          <mxGeometry x="30" y="180" width="30" height="60" as="geometry" />
        </mxCell>
        <mxCell id="IUG04m0RzGx1vQvg1WGh-10" value="" style="shape=flexArrow;endArrow=classic;html=1;strokeWidth=1;fontSize=18;" edge="1" parent="IUG04m0RzGx1vQvg1WGh-1" source="IUG04m0RzGx1vQvg1WGh-7" target="IUG04m0RzGx1vQvg1WGh-15">
          <mxGeometry width="50" height="50" relative="1" as="geometry">
            <mxPoint x="560" y="420" as="sourcePoint" />
            <mxPoint x="610" y="370" as="targetPoint" />
          </mxGeometry>
        </mxCell>
        <mxCell id="IUG04m0RzGx1vQvg1WGh-13" value="PUT" style="text;html=1;strokeColor=none;fillColor=none;align=center;verticalAlign=middle;whiteSpace=wrap;rounded=0;fontSize=18;" vertex="1" parent="IUG04m0RzGx1vQvg1WGh-1">
          <mxGeometry x="600" y="302" width="40" height="20" as="geometry" />
        </mxCell>
        <mxCell id="IUG04m0RzGx1vQvg1WGh-15" value="Lambda Function&lt;br&gt;" style="outlineConnect=0;dashed=0;verticalLabelPosition=bottom;verticalAlign=top;align=center;html=1;shape=mxgraph.aws3.lambda_function;fillColor=#F58534;gradientColor=none;fontSize=18;" vertex="1" parent="IUG04m0RzGx1vQvg1WGh-1">
          <mxGeometry x="1010" y="240" width="69" height="72" as="geometry" />
        </mxCell>
        <mxCell id="IUG04m0RzGx1vQvg1WGh-16" value="" style="shape=flexArrow;endArrow=classic;html=1;strokeWidth=1;fontSize=18;entryX=0.145;entryY=0.855;entryDx=0;entryDy=0;entryPerimeter=0;" edge="1" parent="IUG04m0RzGx1vQvg1WGh-1" source="IUG04m0RzGx1vQvg1WGh-13">
          <mxGeometry width="50" height="50" relative="1" as="geometry">
            <mxPoint x="650" y="270.75382803298" as="sourcePoint" />
            <mxPoint x="1020.0050000000001" y="423.55999999999995" as="targetPoint" />
          </mxGeometry>
        </mxCell>
        <mxCell id="IUG04m0RzGx1vQvg1WGh-17" value="EC2 INSTANCE" style="outlineConnect=0;dashed=0;verticalLabelPosition=bottom;verticalAlign=top;align=center;html=1;shape=mxgraph.aws3.ec2;fillColor=#F58534;gradientColor=none;fontSize=18;" vertex="1" parent="IUG04m0RzGx1vQvg1WGh-1">
          <mxGeometry x="1020" y="377.5" width="76.5" height="93" as="geometry" />
        </mxCell>
      </root>
    </mxGraphModel>
  </diagram>
  <diagram id="Jo6SONe7AdWPpHpff5Rr" name="Page-9">
    <mxGraphModel dx="1185" dy="662" grid="1" gridSize="10" guides="1" tooltips="1" connect="1" arrows="1" fold="1" page="1" pageScale="1" pageWidth="1169" pageHeight="827" math="0" shadow="0">
      <root>
        <mxCell id="EjeStnDQv2555CtSvWfN-0" />
        <mxCell id="EjeStnDQv2555CtSvWfN-1" parent="EjeStnDQv2555CtSvWfN-0" />
        <mxCell id="EjeStnDQv2555CtSvWfN-2" value="Region - eu-west-1" style="points=[[0,0],[0.25,0],[0.5,0],[0.75,0],[1,0],[1,0.25],[1,0.5],[1,0.75],[1,1],[0.75,1],[0.5,1],[0.25,1],[0,1],[0,0.75],[0,0.5],[0,0.25]];outlineConnect=0;gradientColor=none;html=1;whiteSpace=wrap;fontSize=12;fontStyle=0;shape=mxgraph.aws4.group;grIcon=mxgraph.aws4.group_region;strokeColor=#147EBA;fillColor=none;verticalAlign=top;align=left;spacingLeft=30;fontColor=#147EBA;dashed=1;" vertex="1" parent="EjeStnDQv2555CtSvWfN-1">
          <mxGeometry x="70" y="80" width="1060" height="680" as="geometry" />
        </mxCell>
        <mxCell id="EjeStnDQv2555CtSvWfN-3" value="VPC - Production&lt;br&gt;CIDR: &lt;b&gt;10.0.0.0/16&lt;/b&gt; = 10.0.0.1 --&amp;gt; 10.0.255.254 (65,536 IPs)" style="points=[[0,0],[0.25,0],[0.5,0],[0.75,0],[1,0],[1,0.25],[1,0.5],[1,0.75],[1,1],[0.75,1],[0.5,1],[0.25,1],[0,1],[0,0.75],[0,0.5],[0,0.25]];outlineConnect=0;gradientColor=none;html=1;whiteSpace=wrap;fontSize=12;fontStyle=0;shape=mxgraph.aws4.group;grIcon=mxgraph.aws4.group_vpc;strokeColor=#248814;fillColor=none;verticalAlign=top;align=left;spacingLeft=30;fontColor=#AAB7B8;dashed=0;" vertex="1" parent="EjeStnDQv2555CtSvWfN-1">
          <mxGeometry x="150" y="170" width="810" height="500" as="geometry" />
        </mxCell>
        <mxCell id="EjeStnDQv2555CtSvWfN-4" value="Availability Zone" style="fillColor=none;strokeColor=#147EBA;dashed=1;verticalAlign=top;fontStyle=0;fontColor=#147EBA;align=left;" vertex="1" parent="EjeStnDQv2555CtSvWfN-1">
          <mxGeometry x="180" y="120" width="290" height="570" as="geometry" />
        </mxCell>
        <mxCell id="EjeStnDQv2555CtSvWfN-5" value="Availability Zone" style="fillColor=none;strokeColor=#147EBA;dashed=1;verticalAlign=top;fontStyle=0;fontColor=#147EBA;align=left;" vertex="1" parent="EjeStnDQv2555CtSvWfN-1">
          <mxGeometry x="564.5" y="120" width="300" height="570" as="geometry" />
        </mxCell>
        <mxCell id="EjeStnDQv2555CtSvWfN-6" value="Private subnet&lt;br&gt;10.0.10.0/24&lt;br&gt;&lt;b&gt;10.0.10&lt;/b&gt;.1 --&amp;gt; 10.0.10.254" style="points=[[0,0],[0.25,0],[0.5,0],[0.75,0],[1,0],[1,0.25],[1,0.5],[1,0.75],[1,1],[0.75,1],[0.5,1],[0.25,1],[0,1],[0,0.75],[0,0.5],[0,0.25]];outlineConnect=0;gradientColor=none;html=1;whiteSpace=wrap;fontSize=12;fontStyle=0;shape=mxgraph.aws4.group;grIcon=mxgraph.aws4.group_security_group;grStroke=0;strokeColor=#147EBA;fillColor=#E6F2F8;verticalAlign=top;align=left;spacingLeft=30;fontColor=#147EBA;dashed=0;" vertex="1" parent="EjeStnDQv2555CtSvWfN-1">
          <mxGeometry x="220" y="460" width="260" height="190" as="geometry" />
        </mxCell>
        <mxCell id="EjeStnDQv2555CtSvWfN-7" value="10.0.10.30" style="outlineConnect=0;fontColor=#232F3E;gradientColor=#F78E04;gradientDirection=north;fillColor=#D05C17;strokeColor=#ffffff;dashed=0;verticalLabelPosition=bottom;verticalAlign=top;align=center;html=1;fontSize=12;fontStyle=0;aspect=fixed;shape=mxgraph.aws4.resourceIcon;resIcon=mxgraph.aws4.compute;" vertex="1" parent="EjeStnDQv2555CtSvWfN-1">
          <mxGeometry x="250" y="540" width="48" height="48" as="geometry" />
        </mxCell>
        <mxCell id="EjeStnDQv2555CtSvWfN-8" value="Private subnet&lt;br&gt;10.0.20.0/24&lt;br&gt;&lt;b&gt;10.0.20&lt;/b&gt;.1 --&amp;gt; 10.0.20.254" style="points=[[0,0],[0.25,0],[0.5,0],[0.75,0],[1,0],[1,0.25],[1,0.5],[1,0.75],[1,1],[0.75,1],[0.5,1],[0.25,1],[0,1],[0,0.75],[0,0.5],[0,0.25]];outlineConnect=0;gradientColor=none;html=1;whiteSpace=wrap;fontSize=12;fontStyle=0;shape=mxgraph.aws4.group;grIcon=mxgraph.aws4.group_security_group;grStroke=0;strokeColor=#147EBA;fillColor=#E6F2F8;verticalAlign=top;align=left;spacingLeft=30;fontColor=#147EBA;dashed=0;" vertex="1" parent="EjeStnDQv2555CtSvWfN-1">
          <mxGeometry x="580" y="460" width="260" height="190" as="geometry" />
        </mxCell>
        <mxCell id="EjeStnDQv2555CtSvWfN-9" value="10.0.20.23" style="outlineConnect=0;fontColor=#232F3E;gradientColor=#F78E04;gradientDirection=north;fillColor=#D05C17;strokeColor=#ffffff;dashed=0;verticalLabelPosition=bottom;verticalAlign=top;align=center;html=1;fontSize=12;fontStyle=0;aspect=fixed;shape=mxgraph.aws4.resourceIcon;resIcon=mxgraph.aws4.compute;" vertex="1" parent="EjeStnDQv2555CtSvWfN-1">
          <mxGeometry x="620" y="531" width="48" height="48" as="geometry" />
        </mxCell>
        <mxCell id="EjeStnDQv2555CtSvWfN-10" value="VPC ROUTER" style="outlineConnect=0;fontColor=#232F3E;gradientColor=none;fillColor=#5A30B5;strokeColor=none;dashed=0;verticalLabelPosition=bottom;verticalAlign=top;align=center;html=1;fontSize=12;fontStyle=0;aspect=fixed;pointerEvents=1;shape=mxgraph.aws4.customer_gateway;" vertex="1" parent="EjeStnDQv2555CtSvWfN-1">
          <mxGeometry x="470" y="350" width="78" height="78" as="geometry" />
        </mxCell>
        <mxCell id="EjeStnDQv2555CtSvWfN-11" value="" style="endArrow=none;html=1;strokeWidth=1;fontSize=18;exitX=0.5;exitY=0;exitDx=0;exitDy=0;" edge="1" parent="EjeStnDQv2555CtSvWfN-1" source="EjeStnDQv2555CtSvWfN-8" target="EjeStnDQv2555CtSvWfN-10">
          <mxGeometry width="50" height="50" relative="1" as="geometry">
            <mxPoint x="620" y="480" as="sourcePoint" />
            <mxPoint x="670" y="430" as="targetPoint" />
          </mxGeometry>
        </mxCell>
        <mxCell id="EjeStnDQv2555CtSvWfN-12" value="" style="endArrow=none;html=1;strokeWidth=1;fontSize=18;entryX=0.25;entryY=0;entryDx=0;entryDy=0;" edge="1" parent="EjeStnDQv2555CtSvWfN-1" source="EjeStnDQv2555CtSvWfN-10" target="EjeStnDQv2555CtSvWfN-6">
          <mxGeometry width="50" height="50" relative="1" as="geometry">
            <mxPoint x="700" y="470" as="sourcePoint" />
            <mxPoint x="558" y="414.29834254143634" as="targetPoint" />
          </mxGeometry>
        </mxCell>
        <mxCell id="EjeStnDQv2555CtSvWfN-13" value="10.0.10.1" style="text;html=1;strokeColor=none;fillColor=none;align=center;verticalAlign=middle;whiteSpace=wrap;rounded=0;fontSize=18;" vertex="1" parent="EjeStnDQv2555CtSvWfN-1">
          <mxGeometry x="410" y="379" width="40" height="20" as="geometry" />
        </mxCell>
        <mxCell id="EjeStnDQv2555CtSvWfN-14" value="10.0.20.1" style="text;html=1;strokeColor=none;fillColor=none;align=center;verticalAlign=middle;whiteSpace=wrap;rounded=0;fontSize=18;" vertex="1" parent="EjeStnDQv2555CtSvWfN-1">
          <mxGeometry x="564.5" y="379" width="40" height="20" as="geometry" />
        </mxCell>
        <mxCell id="EjeStnDQv2555CtSvWfN-16" value="IGW" style="outlineConnect=0;fontColor=#232F3E;gradientColor=none;fillColor=#5A30B5;strokeColor=none;dashed=0;verticalLabelPosition=bottom;verticalAlign=top;align=center;html=1;fontSize=12;fontStyle=0;aspect=fixed;pointerEvents=1;shape=mxgraph.aws4.internet_gateway;" vertex="1" parent="EjeStnDQv2555CtSvWfN-1">
          <mxGeometry x="482" y="100" width="78" height="78" as="geometry" />
        </mxCell>
        <mxCell id="EjeStnDQv2555CtSvWfN-17" value="" style="endArrow=none;html=1;strokeWidth=1;fontSize=18;" edge="1" parent="EjeStnDQv2555CtSvWfN-1" source="EjeStnDQv2555CtSvWfN-10" target="EjeStnDQv2555CtSvWfN-16">
          <mxGeometry width="50" height="50" relative="1" as="geometry">
            <mxPoint x="590" y="400" as="sourcePoint" />
            <mxPoint x="640" y="350" as="targetPoint" />
          </mxGeometry>
        </mxCell>
        <mxCell id="EjeStnDQv2555CtSvWfN-18" value="Public subnet&lt;br&gt;10.0.30.0/24&amp;nbsp;&lt;br&gt;10.0.30.1 --&amp;gt; 10.0.30.254" style="points=[[0,0],[0.25,0],[0.5,0],[0.75,0],[1,0],[1,0.25],[1,0.5],[1,0.75],[1,1],[0.75,1],[0.5,1],[0.25,1],[0,1],[0,0.75],[0,0.5],[0,0.25]];outlineConnect=0;gradientColor=none;html=1;whiteSpace=wrap;fontSize=12;fontStyle=0;shape=mxgraph.aws4.group;grIcon=mxgraph.aws4.group_security_group;grStroke=0;strokeColor=#248814;fillColor=#E9F3E6;verticalAlign=top;align=left;spacingLeft=30;fontColor=#248814;dashed=0;" vertex="1" parent="EjeStnDQv2555CtSvWfN-1">
          <mxGeometry x="200" y="230" width="250" height="130" as="geometry" />
        </mxCell>
        <mxCell id="EjeStnDQv2555CtSvWfN-19" value="10.0.30.66" style="outlineConnect=0;fontColor=#232F3E;gradientColor=#F78E04;gradientDirection=north;fillColor=#D05C17;strokeColor=#ffffff;dashed=0;verticalLabelPosition=bottom;verticalAlign=top;align=center;html=1;fontSize=12;fontStyle=0;aspect=fixed;shape=mxgraph.aws4.resourceIcon;resIcon=mxgraph.aws4.compute;" vertex="1" parent="EjeStnDQv2555CtSvWfN-1">
          <mxGeometry x="230" y="290" width="48" height="48" as="geometry" />
        </mxCell>
        <mxCell id="EjeStnDQv2555CtSvWfN-20" value="" style="endArrow=none;html=1;strokeWidth=1;fontSize=18;" edge="1" parent="EjeStnDQv2555CtSvWfN-1" source="EjeStnDQv2555CtSvWfN-10" target="EjeStnDQv2555CtSvWfN-18">
          <mxGeometry width="50" height="50" relative="1" as="geometry">
            <mxPoint x="590" y="380" as="sourcePoint" />
            <mxPoint x="640" y="330" as="targetPoint" />
          </mxGeometry>
        </mxCell>
        <mxCell id="EjeStnDQv2555CtSvWfN-21" value="Route Table 1&lt;br&gt;10.0.0.0/16 local" style="rounded=1;whiteSpace=wrap;html=1;fontSize=18;align=left;" vertex="1" parent="EjeStnDQv2555CtSvWfN-1">
          <mxGeometry x="930" y="500" width="240" height="60" as="geometry" />
        </mxCell>
        <mxCell id="EjeStnDQv2555CtSvWfN-22" value="Route Table 2&lt;br style=&quot;font-size: 14px;&quot;&gt;10.0.0.0/16 local&lt;br style=&quot;font-size: 14px;&quot;&gt;0.0.0.0/0 IGW" style="rounded=1;whiteSpace=wrap;html=1;fontSize=14;align=left;" vertex="1" parent="EjeStnDQv2555CtSvWfN-1">
          <mxGeometry x="940" y="290" width="130" height="60" as="geometry" />
        </mxCell>
        <mxCell id="EjeStnDQv2555CtSvWfN-23" value="77.3.44.101" style="text;html=1;strokeColor=none;fillColor=none;align=center;verticalAlign=middle;whiteSpace=wrap;rounded=0;fontSize=14;" vertex="1" parent="EjeStnDQv2555CtSvWfN-1">
          <mxGeometry x="320" y="20" width="40" height="20" as="geometry" />
        </mxCell>
        <mxCell id="EjeStnDQv2555CtSvWfN-24" value="" style="shape=flexArrow;endArrow=classic;startArrow=classic;html=1;strokeWidth=1;fontSize=14;entryX=0.25;entryY=1;entryDx=0;entryDy=0;" edge="1" parent="EjeStnDQv2555CtSvWfN-1" source="EjeStnDQv2555CtSvWfN-19" target="EjeStnDQv2555CtSvWfN-23">
          <mxGeometry width="50" height="50" relative="1" as="geometry">
            <mxPoint x="550" y="270" as="sourcePoint" />
            <mxPoint x="600" y="220" as="targetPoint" />
          </mxGeometry>
        </mxCell>
        <mxCell id="EjeStnDQv2555CtSvWfN-25" value="NAT GATEWAY" style="outlineConnect=0;fontColor=#232F3E;gradientColor=none;fillColor=#5A30B5;strokeColor=none;dashed=0;verticalLabelPosition=bottom;verticalAlign=top;align=center;html=1;fontSize=12;fontStyle=0;aspect=fixed;pointerEvents=1;shape=mxgraph.aws4.nat_gateway;" vertex="1" parent="EjeStnDQv2555CtSvWfN-1">
          <mxGeometry x="402" y="260" width="48" height="48" as="geometry" />
        </mxCell>
        <mxCell id="EjeStnDQv2555CtSvWfN-26" value="Route Table 3&lt;br style=&quot;font-size: 14px&quot;&gt;10.0.0.0/16 local&lt;br style=&quot;font-size: 14px&quot;&gt;0.0.0.0/0 &amp;lt;IP OF NAT INSTANCE&amp;gt;" style="rounded=1;whiteSpace=wrap;html=1;fontSize=14;align=left;" vertex="1" parent="EjeStnDQv2555CtSvWfN-1">
          <mxGeometry x="671" y="600" width="290" height="60" as="geometry" />
        </mxCell>
        <mxCell id="EjeStnDQv2555CtSvWfN-27" value="NAT INSTANCE" style="outlineConnect=0;fontColor=#232F3E;gradientColor=#F78E04;gradientDirection=north;fillColor=#D05C17;strokeColor=#ffffff;dashed=0;verticalLabelPosition=bottom;verticalAlign=top;align=center;html=1;fontSize=12;fontStyle=0;aspect=fixed;shape=mxgraph.aws4.resourceIcon;resIcon=mxgraph.aws4.compute;" vertex="1" parent="EjeStnDQv2555CtSvWfN-1">
          <mxGeometry x="340" y="290" width="48" height="48" as="geometry" />
        </mxCell>
        <mxCell id="EjeStnDQv2555CtSvWfN-28" value="Public subnet&lt;br&gt;10.0.40.0/24&amp;nbsp;&lt;br&gt;10.0.40.1 --&amp;gt; 10.0.40.254" style="points=[[0,0],[0.25,0],[0.5,0],[0.75,0],[1,0],[1,0.25],[1,0.5],[1,0.75],[1,1],[0.75,1],[0.5,1],[0.25,1],[0,1],[0,0.75],[0,0.5],[0,0.25]];outlineConnect=0;gradientColor=none;html=1;whiteSpace=wrap;fontSize=12;fontStyle=0;shape=mxgraph.aws4.group;grIcon=mxgraph.aws4.group_security_group;grStroke=0;strokeColor=#248814;fillColor=#E9F3E6;verticalAlign=top;align=left;spacingLeft=30;fontColor=#248814;dashed=0;" vertex="1" parent="EjeStnDQv2555CtSvWfN-1">
          <mxGeometry x="590" y="230" width="250" height="130" as="geometry" />
        </mxCell>
        <mxCell id="EjeStnDQv2555CtSvWfN-30" value="NAT GATEWAY" style="outlineConnect=0;fontColor=#232F3E;gradientColor=none;fillColor=#5A30B5;strokeColor=none;dashed=0;verticalLabelPosition=bottom;verticalAlign=top;align=center;html=1;fontSize=12;fontStyle=0;aspect=fixed;pointerEvents=1;shape=mxgraph.aws4.nat_gateway;" vertex="1" parent="EjeStnDQv2555CtSvWfN-1">
          <mxGeometry x="792" y="250" width="48" height="48" as="geometry" />
        </mxCell>
        <mxCell id="EjeStnDQv2555CtSvWfN-31" value="EIP - 44.55.66.101" style="text;html=1;strokeColor=none;fillColor=none;align=center;verticalAlign=middle;whiteSpace=wrap;rounded=0;fontSize=14;" vertex="1" parent="EjeStnDQv2555CtSvWfN-1">
          <mxGeometry x="450" y="20" width="150" height="20" as="geometry" />
        </mxCell>
        <mxCell id="EjeStnDQv2555CtSvWfN-33" value="" style="shape=flexArrow;endArrow=classic;startArrow=classic;html=1;strokeWidth=1;fontSize=14;entryX=0.25;entryY=1;entryDx=0;entryDy=0;" edge="1" parent="EjeStnDQv2555CtSvWfN-1">
          <mxGeometry width="50" height="50" relative="1" as="geometry">
            <mxPoint x="430" y="250" as="sourcePoint" />
            <mxPoint x="499.34000000000003" y="40" as="targetPoint" />
          </mxGeometry>
        </mxCell>
        <mxCell id="0aE2sS-oPwVoZkabTrLy-0" value="" style="outlineConnect=0;fontColor=#232F3E;gradientColor=none;fillColor=#232F3E;strokeColor=none;dashed=0;verticalLabelPosition=bottom;verticalAlign=top;align=center;html=1;fontSize=12;fontStyle=0;aspect=fixed;pointerEvents=1;shape=mxgraph.aws4.generic_firewall;" vertex="1" parent="EjeStnDQv2555CtSvWfN-1">
          <mxGeometry x="500" y="298" width="78" height="66" as="geometry" />
        </mxCell>
        <mxCell id="0aE2sS-oPwVoZkabTrLy-1" value="Security group" style="fillColor=none;strokeColor=#DD3522;verticalAlign=top;fontStyle=0;fontColor=#DD3522;align=left;" vertex="1" parent="EjeStnDQv2555CtSvWfN-1">
          <mxGeometry x="234" y="520" width="80" height="91" as="geometry" />
        </mxCell>
        <mxCell id="0aE2sS-oPwVoZkabTrLy-2" value="Security group" style="fillColor=none;strokeColor=#DD3522;verticalAlign=top;fontStyle=0;fontColor=#DD3522;align=left;" vertex="1" parent="EjeStnDQv2555CtSvWfN-1">
          <mxGeometry x="340" y="520" width="80" height="91" as="geometry" />
        </mxCell>
        <mxCell id="0aE2sS-oPwVoZkabTrLy-3" value="10.0.10.66" style="outlineConnect=0;fontColor=#232F3E;gradientColor=#F78E04;gradientDirection=north;fillColor=#D05C17;strokeColor=#ffffff;dashed=0;verticalLabelPosition=bottom;verticalAlign=top;align=center;html=1;fontSize=12;fontStyle=0;aspect=fixed;shape=mxgraph.aws4.resourceIcon;resIcon=mxgraph.aws4.compute;" vertex="1" parent="EjeStnDQv2555CtSvWfN-1">
          <mxGeometry x="354" y="541.5" width="48" height="48" as="geometry" />
        </mxCell>
      </root>
    </mxGraphModel>
  </diagram>
  <diagram id="w-UEYUAMsFkZ_KqmcbTM" name="Page-10">
    <mxGraphModel dx="813" dy="454" grid="1" gridSize="10" guides="1" tooltips="1" connect="1" arrows="1" fold="1" page="1" pageScale="1" pageWidth="1169" pageHeight="827" math="0" shadow="0">
      <root>
        <mxCell id="dKdnWioaXBBfZdbZ4bmF-0" />
        <mxCell id="dKdnWioaXBBfZdbZ4bmF-1" parent="dKdnWioaXBBfZdbZ4bmF-0" />
        <mxCell id="dKdnWioaXBBfZdbZ4bmF-4" value="Region" style="points=[[0,0],[0.25,0],[0.5,0],[0.75,0],[1,0],[1,0.25],[1,0.5],[1,0.75],[1,1],[0.75,1],[0.5,1],[0.25,1],[0,1],[0,0.75],[0,0.5],[0,0.25]];outlineConnect=0;gradientColor=none;html=1;whiteSpace=wrap;fontSize=12;fontStyle=0;shape=mxgraph.aws4.group;grIcon=mxgraph.aws4.group_region;strokeColor=#147EBA;fillColor=none;verticalAlign=top;align=left;spacingLeft=30;fontColor=#147EBA;dashed=1;" vertex="1" parent="dKdnWioaXBBfZdbZ4bmF-1">
          <mxGeometry x="50" y="60" width="1060" height="770" as="geometry" />
        </mxCell>
        <mxCell id="dKdnWioaXBBfZdbZ4bmF-2" value="VPC - 10.0.0.0/16&lt;br&gt;General Apps" style="points=[[0,0],[0.25,0],[0.5,0],[0.75,0],[1,0],[1,0.25],[1,0.5],[1,0.75],[1,1],[0.75,1],[0.5,1],[0.25,1],[0,1],[0,0.75],[0,0.5],[0,0.25]];outlineConnect=0;gradientColor=none;html=1;whiteSpace=wrap;fontSize=12;fontStyle=0;shape=mxgraph.aws4.group;grIcon=mxgraph.aws4.group_vpc;strokeColor=#248814;fillColor=none;verticalAlign=top;align=left;spacingLeft=30;fontColor=#AAB7B8;dashed=0;" vertex="1" parent="dKdnWioaXBBfZdbZ4bmF-1">
          <mxGeometry x="140" y="140" width="630" height="290" as="geometry" />
        </mxCell>
        <mxCell id="dKdnWioaXBBfZdbZ4bmF-3" value="https://bucket.s3.amazonaws.com" style="outlineConnect=0;fontColor=#232F3E;gradientColor=none;fillColor=#277116;strokeColor=none;dashed=0;verticalLabelPosition=bottom;verticalAlign=top;align=center;html=1;fontSize=12;fontStyle=0;aspect=fixed;pointerEvents=1;shape=mxgraph.aws4.bucket;" vertex="1" parent="dKdnWioaXBBfZdbZ4bmF-1">
          <mxGeometry x="920" y="218" width="75" height="78" as="geometry" />
        </mxCell>
        <mxCell id="dKdnWioaXBBfZdbZ4bmF-5" value="Private subnet" style="points=[[0,0],[0.25,0],[0.5,0],[0.75,0],[1,0],[1,0.25],[1,0.5],[1,0.75],[1,1],[0.75,1],[0.5,1],[0.25,1],[0,1],[0,0.75],[0,0.5],[0,0.25]];outlineConnect=0;gradientColor=none;html=1;whiteSpace=wrap;fontSize=12;fontStyle=0;shape=mxgraph.aws4.group;grIcon=mxgraph.aws4.group_security_group;grStroke=0;strokeColor=#147EBA;fillColor=#E6F2F8;verticalAlign=top;align=left;spacingLeft=30;fontColor=#147EBA;dashed=0;" vertex="1" parent="dKdnWioaXBBfZdbZ4bmF-1">
          <mxGeometry x="220" y="188" width="370" height="200" as="geometry" />
        </mxCell>
        <mxCell id="dKdnWioaXBBfZdbZ4bmF-6" value="" style="outlineConnect=0;fontColor=#232F3E;gradientColor=#F78E04;gradientDirection=north;fillColor=#D05C17;strokeColor=#ffffff;dashed=0;verticalLabelPosition=bottom;verticalAlign=top;align=center;html=1;fontSize=12;fontStyle=0;aspect=fixed;shape=mxgraph.aws4.resourceIcon;resIcon=mxgraph.aws4.compute;" vertex="1" parent="dKdnWioaXBBfZdbZ4bmF-1">
          <mxGeometry x="300" y="228" width="78" height="78" as="geometry" />
        </mxCell>
        <mxCell id="dKdnWioaXBBfZdbZ4bmF-7" value="VPC ENDPOINT&lt;br&gt;S3 GATEWAY" style="outlineConnect=0;fontColor=#232F3E;gradientColor=none;fillColor=#5A30B5;strokeColor=none;dashed=0;verticalLabelPosition=bottom;verticalAlign=top;align=center;html=1;fontSize=12;fontStyle=0;aspect=fixed;pointerEvents=1;shape=mxgraph.aws4.endpoints;" vertex="1" parent="dKdnWioaXBBfZdbZ4bmF-1">
          <mxGeometry x="710" y="110" width="78" height="78" as="geometry" />
        </mxCell>
        <mxCell id="dKdnWioaXBBfZdbZ4bmF-8" value="" style="shape=flexArrow;endArrow=classic;html=1;strokeWidth=1;fontSize=14;" edge="1" parent="dKdnWioaXBBfZdbZ4bmF-1" source="dKdnWioaXBBfZdbZ4bmF-6" target="dKdnWioaXBBfZdbZ4bmF-7">
          <mxGeometry width="50" height="50" relative="1" as="geometry">
            <mxPoint x="550" y="358" as="sourcePoint" />
            <mxPoint x="600" y="308" as="targetPoint" />
          </mxGeometry>
        </mxCell>
        <mxCell id="dKdnWioaXBBfZdbZ4bmF-9" value="" style="shape=flexArrow;endArrow=classic;html=1;strokeWidth=1;fontSize=14;" edge="1" parent="dKdnWioaXBBfZdbZ4bmF-1" source="dKdnWioaXBBfZdbZ4bmF-7" target="dKdnWioaXBBfZdbZ4bmF-3">
          <mxGeometry width="50" height="50" relative="1" as="geometry">
            <mxPoint x="388" y="265.77560975609754" as="sourcePoint" />
            <mxPoint x="720" y="170.22439024390246" as="targetPoint" />
          </mxGeometry>
        </mxCell>
        <mxCell id="dKdnWioaXBBfZdbZ4bmF-15" value="VPC - 10.0.0.0/16&lt;br&gt;Saas App 1" style="points=[[0,0],[0.25,0],[0.5,0],[0.75,0],[1,0],[1,0.25],[1,0.5],[1,0.75],[1,1],[0.75,1],[0.5,1],[0.25,1],[0,1],[0,0.75],[0,0.5],[0,0.25]];outlineConnect=0;gradientColor=none;html=1;whiteSpace=wrap;fontSize=12;fontStyle=0;shape=mxgraph.aws4.group;grIcon=mxgraph.aws4.group_vpc;strokeColor=#248814;fillColor=none;verticalAlign=top;align=left;spacingLeft=30;fontColor=#AAB7B8;dashed=0;" vertex="1" parent="dKdnWioaXBBfZdbZ4bmF-1">
          <mxGeometry x="140" y="460" width="630" height="290" as="geometry" />
        </mxCell>
        <mxCell id="dKdnWioaXBBfZdbZ4bmF-16" value="Private subnet" style="points=[[0,0],[0.25,0],[0.5,0],[0.75,0],[1,0],[1,0.25],[1,0.5],[1,0.75],[1,1],[0.75,1],[0.5,1],[0.25,1],[0,1],[0,0.75],[0,0.5],[0,0.25]];outlineConnect=0;gradientColor=none;html=1;whiteSpace=wrap;fontSize=12;fontStyle=0;shape=mxgraph.aws4.group;grIcon=mxgraph.aws4.group_security_group;grStroke=0;strokeColor=#147EBA;fillColor=#E6F2F8;verticalAlign=top;align=left;spacingLeft=30;fontColor=#147EBA;dashed=0;" vertex="1" parent="dKdnWioaXBBfZdbZ4bmF-1">
          <mxGeometry x="215" y="520" width="370" height="200" as="geometry" />
        </mxCell>
        <mxCell id="dKdnWioaXBBfZdbZ4bmF-17" value="" style="outlineConnect=0;fontColor=#232F3E;gradientColor=#F78E04;gradientDirection=north;fillColor=#D05C17;strokeColor=#ffffff;dashed=0;verticalLabelPosition=bottom;verticalAlign=top;align=center;html=1;fontSize=12;fontStyle=0;aspect=fixed;shape=mxgraph.aws4.resourceIcon;resIcon=mxgraph.aws4.compute;" vertex="1" parent="dKdnWioaXBBfZdbZ4bmF-1">
          <mxGeometry x="270" y="620" width="78" height="78" as="geometry" />
        </mxCell>
        <mxCell id="dKdnWioaXBBfZdbZ4bmF-18" value="" style="outlineConnect=0;fontColor=#232F3E;gradientColor=#F78E04;gradientDirection=north;fillColor=#D05C17;strokeColor=#ffffff;dashed=0;verticalLabelPosition=bottom;verticalAlign=top;align=center;html=1;fontSize=12;fontStyle=0;aspect=fixed;shape=mxgraph.aws4.resourceIcon;resIcon=mxgraph.aws4.compute;" vertex="1" parent="dKdnWioaXBBfZdbZ4bmF-1">
          <mxGeometry x="280" y="630" width="78" height="78" as="geometry" />
        </mxCell>
        <mxCell id="dKdnWioaXBBfZdbZ4bmF-19" value="" style="outlineConnect=0;fontColor=#232F3E;gradientColor=#F78E04;gradientDirection=north;fillColor=#D05C17;strokeColor=#ffffff;dashed=0;verticalLabelPosition=bottom;verticalAlign=top;align=center;html=1;fontSize=12;fontStyle=0;aspect=fixed;shape=mxgraph.aws4.resourceIcon;resIcon=mxgraph.aws4.compute;" vertex="1" parent="dKdnWioaXBBfZdbZ4bmF-1">
          <mxGeometry x="290" y="640" width="78" height="78" as="geometry" />
        </mxCell>
        <mxCell id="dKdnWioaXBBfZdbZ4bmF-20" value="" style="outlineConnect=0;fontColor=#232F3E;gradientColor=none;fillColor=#5A30B5;strokeColor=none;dashed=0;verticalLabelPosition=bottom;verticalAlign=top;align=center;html=1;fontSize=12;fontStyle=0;aspect=fixed;pointerEvents=1;shape=mxgraph.aws4.network_load_balancer;" vertex="1" parent="dKdnWioaXBBfZdbZ4bmF-1">
          <mxGeometry x="340" y="530" width="78" height="78" as="geometry" />
        </mxCell>
        <mxCell id="dKdnWioaXBBfZdbZ4bmF-21" value="" style="outlineConnect=0;dashed=0;verticalLabelPosition=bottom;verticalAlign=top;align=center;html=1;shape=mxgraph.aws3.elastic_network_interface;fillColor=#F58534;gradientColor=none;fontSize=14;" vertex="1" parent="dKdnWioaXBBfZdbZ4bmF-1">
          <mxGeometry x="348" y="340" width="60" height="60" as="geometry" />
        </mxCell>
        <mxCell id="dKdnWioaXBBfZdbZ4bmF-22" value="" style="shape=flexArrow;endArrow=classic;startArrow=classic;html=1;strokeWidth=1;fontSize=14;" edge="1" parent="dKdnWioaXBBfZdbZ4bmF-1" source="dKdnWioaXBBfZdbZ4bmF-21" target="dKdnWioaXBBfZdbZ4bmF-20">
          <mxGeometry width="50" height="50" relative="1" as="geometry">
            <mxPoint x="430" y="390" as="sourcePoint" />
            <mxPoint x="480" y="340" as="targetPoint" />
          </mxGeometry>
        </mxCell>
      </root>
    </mxGraphModel>
  </diagram>
  <diagram id="zHGy6m-T071prMHdORu0" name="Page-11">
    <mxGraphModel dx="1661" dy="710" grid="1" gridSize="10" guides="1" tooltips="1" connect="1" arrows="1" fold="1" page="1" pageScale="1" pageWidth="1169" pageHeight="827" math="0" shadow="0">
      <root>
        <mxCell id="EKliwi__9QPMsgWiTzvb-0" />
        <mxCell id="EKliwi__9QPMsgWiTzvb-1" parent="EKliwi__9QPMsgWiTzvb-0" />
        <mxCell id="EKliwi__9QPMsgWiTzvb-7" value="Availabilty Zone" style="fillColor=none;strokeColor=#147EBA;dashed=1;verticalAlign=top;fontStyle=0;fontColor=#147EBA;align=left;" vertex="1" parent="EKliwi__9QPMsgWiTzvb-1">
          <mxGeometry x="50" y="20" width="630" height="790" as="geometry" />
        </mxCell>
        <mxCell id="EKliwi__9QPMsgWiTzvb-5" value="HYPERVISOR" style="rounded=1;whiteSpace=wrap;html=1;align=left;fontSize=14;" vertex="1" parent="EKliwi__9QPMsgWiTzvb-1">
          <mxGeometry x="90" y="40" width="400" height="260" as="geometry" />
        </mxCell>
        <mxCell id="EKliwi__9QPMsgWiTzvb-4" value="EBS &quot;SAN&quot;" style="rounded=1;whiteSpace=wrap;html=1;align=left;fontSize=14;" vertex="1" parent="EKliwi__9QPMsgWiTzvb-1">
          <mxGeometry x="110" y="380" width="390" height="120" as="geometry" />
        </mxCell>
        <mxCell id="EKliwi__9QPMsgWiTzvb-2" value="Linux&lt;br&gt;ec2 instance" style="rounded=1;whiteSpace=wrap;html=1;align=left;fontSize=14;" vertex="1" parent="EKliwi__9QPMsgWiTzvb-1">
          <mxGeometry x="260" y="130" width="120" height="60" as="geometry" />
        </mxCell>
        <mxCell id="EKliwi__9QPMsgWiTzvb-3" value="EBS VOLUME" style="pointerEvents=1;shadow=0;dashed=0;html=1;strokeColor=none;fillColor=#434445;aspect=fixed;labelPosition=center;verticalLabelPosition=bottom;verticalAlign=top;align=center;outlineConnect=0;shape=mxgraph.vvd.datastore;fontSize=14;" vertex="1" parent="EKliwi__9QPMsgWiTzvb-1">
          <mxGeometry x="260" y="400" width="50" height="39" as="geometry" />
        </mxCell>
        <mxCell id="EKliwi__9QPMsgWiTzvb-6" value="" style="shape=flexArrow;endArrow=classic;html=1;strokeWidth=1;fontSize=14;exitX=0.5;exitY=1;exitDx=0;exitDy=0;entryX=0.458;entryY=0.025;entryDx=0;entryDy=0;entryPerimeter=0;" edge="1" parent="EKliwi__9QPMsgWiTzvb-1" source="EKliwi__9QPMsgWiTzvb-5" target="EKliwi__9QPMsgWiTzvb-4">
          <mxGeometry width="50" height="50" relative="1" as="geometry">
            <mxPoint x="560" y="430" as="sourcePoint" />
            <mxPoint x="610" y="380" as="targetPoint" />
          </mxGeometry>
        </mxCell>
        <mxCell id="EKliwi__9QPMsgWiTzvb-8" value="Availability Zone" style="fillColor=none;strokeColor=#147EBA;dashed=1;verticalAlign=top;fontStyle=0;fontColor=#147EBA;align=left;" vertex="1" parent="EKliwi__9QPMsgWiTzvb-1">
          <mxGeometry x="700" y="20" width="630" height="790" as="geometry" />
        </mxCell>
        <mxCell id="EKliwi__9QPMsgWiTzvb-9" value="STORAGE SERVICE: S3" style="rounded=1;whiteSpace=wrap;html=1;align=left;fontSize=14;fillColor=#dae8fc;strokeColor=#6c8ebf;" vertex="1" parent="EKliwi__9QPMsgWiTzvb-1">
          <mxGeometry x="30" y="530" width="1350" height="60" as="geometry" />
        </mxCell>
        <mxCell id="EKliwi__9QPMsgWiTzvb-10" value="STORAGE SERVICE: EFS (nfs V4)" style="rounded=1;whiteSpace=wrap;html=1;align=left;fontSize=14;fillColor=#dae8fc;strokeColor=#6c8ebf;" vertex="1" parent="EKliwi__9QPMsgWiTzvb-1">
          <mxGeometry x="31" y="600" width="1350" height="60" as="geometry" />
        </mxCell>
        <mxCell id="EKliwi__9QPMsgWiTzvb-11" value="" style="shape=flexArrow;endArrow=classic;html=1;strokeWidth=1;fontSize=14;exitX=0.5;exitY=1;exitDx=0;exitDy=0;" edge="1" parent="EKliwi__9QPMsgWiTzvb-1" target="EKliwi__9QPMsgWiTzvb-10">
          <mxGeometry width="50" height="50" relative="1" as="geometry">
            <mxPoint x="351.38" y="170" as="sourcePoint" />
            <mxPoint x="349.9999999999999" y="253" as="targetPoint" />
          </mxGeometry>
        </mxCell>
        <mxCell id="EKliwi__9QPMsgWiTzvb-12" value="nfs mount to nfs server target" style="rounded=1;whiteSpace=wrap;html=1;align=left;fontSize=14;" vertex="1" parent="EKliwi__9QPMsgWiTzvb-1">
          <mxGeometry x="500" y="320" width="120" height="40" as="geometry" />
        </mxCell>
        <mxCell id="EKliwi__9QPMsgWiTzvb-13" value="STORAGE SERVICE: FSx for Windows Server (CIFS)" style="rounded=1;whiteSpace=wrap;html=1;align=left;fontSize=14;fillColor=#dae8fc;strokeColor=#6c8ebf;" vertex="1" parent="EKliwi__9QPMsgWiTzvb-1">
          <mxGeometry x="31" y="670" width="1350" height="60" as="geometry" />
        </mxCell>
        <mxCell id="EKliwi__9QPMsgWiTzvb-14" value="Windows&lt;br&gt;ec2 instance" style="rounded=1;whiteSpace=wrap;html=1;align=left;fontSize=14;" vertex="1" parent="EKliwi__9QPMsgWiTzvb-1">
          <mxGeometry x="420" y="130" width="120" height="60" as="geometry" />
        </mxCell>
        <mxCell id="EKliwi__9QPMsgWiTzvb-15" value="" style="shape=flexArrow;endArrow=classic;html=1;strokeWidth=1;fontSize=14;entryX=0.61;entryY=0.083;entryDx=0;entryDy=0;entryPerimeter=0;" edge="1" parent="EKliwi__9QPMsgWiTzvb-1" source="EKliwi__9QPMsgWiTzvb-14" target="EKliwi__9QPMsgWiTzvb-13">
          <mxGeometry width="50" height="50" relative="1" as="geometry">
            <mxPoint x="361.3800000000001" y="180" as="sourcePoint" />
            <mxPoint x="692.8726086956522" y="610" as="targetPoint" />
          </mxGeometry>
        </mxCell>
        <mxCell id="EKliwi__9QPMsgWiTzvb-16" value="net use smb file share mount" style="rounded=1;whiteSpace=wrap;html=1;align=left;fontSize=14;" vertex="1" parent="EKliwi__9QPMsgWiTzvb-1">
          <mxGeometry x="540" y="200" width="120" height="40" as="geometry" />
        </mxCell>
        <mxCell id="EKliwi__9QPMsgWiTzvb-17" value="EBS &quot;SAN&quot;" style="rounded=1;whiteSpace=wrap;html=1;align=left;fontSize=14;" vertex="1" parent="EKliwi__9QPMsgWiTzvb-1">
          <mxGeometry x="860" y="370" width="390" height="120" as="geometry" />
        </mxCell>
      </root>
    </mxGraphModel>
  </diagram>
</mxfile>
